<?xml version="1.0" encoding="utf-8"?>
<!-- Generator: Adobe Illustrator 16.0.0, SVG Export Plug-In . SVG Version: 6.00 Build 0)  -->
<!DOCTYPE svg PUBLIC "-//W3C//DTD SVG 1.1//EN" "http://www.w3.org/Graphics/SVG/1.1/DTD/svg11.dtd">
<svg version="1.1" id="Livello_1" xmlns="http://www.w3.org/2000/svg" xmlns:xlink="http://www.w3.org/1999/xlink" x="0px" y="0px"
	 width="283.46px" height="283.46px" viewBox="0 0 283.46 283.46" enable-background="new 0 0 283.46 283.46" xml:space="preserve">
<path id="path18" fill="#FFFFFF" d="M271.605,149.689c-4.277,71.393-65.639,125.801-137.038,121.523
	C63.154,266.934,8.74,205.588,13.02,134.197C17.296,62.789,78.653,8.388,150.061,12.664
	c70.559,4.229,124.533,64.176,121.664,134.487"/>
<path id="path20" fill="#231F20" d="M141.804,264.756l2.245-0.033l0.117,12l-2.245,0.025L141.804,264.756L141.804,264.756"/>
<path id="path22" fill="#231F20" d="M135.577,276.604l0.495-11.98l2.247,0.086l-0.494,11.98L135.577,276.604L135.577,276.604"/>
<path id="path24" fill="#231F20" d="M147.533,264.623l2.242-0.143l0.727,11.982l-2.232,0.141L147.533,264.623L147.533,264.623"/>
<path id="path26" fill="#231F20" d="M129.332,276.188l0.943-11.969l2.244,0.18l-0.956,11.967L129.332,276.188L129.332,276.188"/>
<path id="path28" fill="#231F20" d="M153.33,264.207l2.238-0.229l1.168,11.938l-2.23,0.223L153.33,264.207L153.33,264.207"/>
<path id="path30" fill="#231F20" d="M123.028,275.473l1.545-11.904l2.235,0.281l-1.552,11.908L123.028,275.473L123.028,275.473"/>
<path id="path32" fill="#231F20" d="M159.031,263.533l2.223-0.328l1.762,11.875l-2.209,0.324L159.031,263.533L159.031,263.533"/>
<path id="path34" fill="#231F20" d="M116.769,274.461l2.148-11.814l2.212,0.398l-2.153,11.818L116.769,274.461L116.769,274.461"/>
<path id="path36" fill="#231F20" d="M164.689,262.6l2.209-0.443l2.346,11.77l-2.193,0.441L164.689,262.6L164.689,262.6"/>
<path id="path38" fill="#231F20" d="M110.637,273.186l2.587-11.715l2.196,0.484l-2.593,11.721L110.637,273.186L110.637,273.186"/>
<path id="path40" fill="#231F20" d="M170.301,261.406l2.184-0.551l2.941,11.627l-2.172,0.551L170.301,261.406L170.301,261.406"/>
<path id="path42" fill="#231F20" d="M104.501,271.592l3.17-11.566l2.169,0.586l-3.179,11.57L104.501,271.592L104.501,271.592"/>
<path id="path44" fill="#231F20" d="M175.932,259.918l2.152-0.631l3.373,11.518l-2.162,0.629L175.932,259.918L175.932,259.918"/>
<path id="path46" fill="#231F20" d="M98.441,269.719l3.754-11.4l2.135,0.703l-3.752,11.402L98.441,269.719L98.441,269.719"/>
<path id="path48" fill="#231F20" d="M181.414,258.178l2.107-0.73l3.938,11.338l-2.117,0.729L181.414,258.178L181.414,258.178"/>
<path id="path50" fill="#231F20" d="M92.488,267.557l4.309-11.197l2.092,0.805l-4.307,11.199L92.488,267.557L92.488,267.557"/>
<path id="path52" fill="#231F20" d="M186.797,256.209l2.08-0.836l4.486,11.127l-2.076,0.85L186.797,256.209L186.797,256.209"/>
<path id="path54" fill="#231F20" d="M86.702,265.172l4.723-11.037l2.066,0.889l-4.728,11.031L86.702,265.172L86.702,265.172"/>
<path id="path56" fill="#231F20" d="M192.096,253.992l2.037-0.953l5.023,10.902l-2.039,0.945L192.096,253.992L192.096,253.992"/>
<path id="path58" fill="#231F20" d="M80.985,262.475l5.254-10.791l2.025,0.977l-5.268,10.793L80.985,262.475L80.985,262.475"/>
<path id="path60" fill="#231F20" d="M197.283,251.518l1.982-1.041l5.553,10.65l-1.996,1.029L197.283,251.518L197.283,251.518"/>
<path id="path62" fill="#231F20" d="M75.38,259.496l5.784-10.521l1.976,1.098l-5.785,10.506L75.38,259.496L75.38,259.496"/>
<path id="path64" fill="#231F20" d="M202.354,248.801l1.934-1.125l6.047,10.363l-1.934,1.127L202.354,248.801L202.354,248.801"/>
<path id="path66" fill="#231F20" d="M69.944,256.275l6.28-10.217l1.912,1.162l-6.289,10.227L69.944,256.275L69.944,256.275"/>
<path id="path68" fill="#231F20" d="M207.287,245.855l1.889-1.227l6.535,10.072l-1.887,1.215L207.287,245.855L207.287,245.855"/>
<path id="path70" fill="#231F20" d="M64.657,252.799l6.774-9.906l1.845,1.271l-6.767,9.896L64.657,252.799L64.657,252.799"/>
<path id="path72" fill="#231F20" d="M212.143,242.635l1.832-1.309l6.898,9.85l-1.846,1.283L212.143,242.635L212.143,242.635"/>
<path id="path74" fill="#231F20" d="M59.538,249.076l7.24-9.566l1.783,1.365l-7.237,9.555L59.538,249.076L59.538,249.076"/>
<path id="path76" fill="#231F20" d="M216.775,239.234l1.775-1.373l7.363,9.48l-1.771,1.385L216.775,239.234L216.775,239.234"/>
<path id="path78" fill="#231F20" d="M54.637,245.184l7.585-9.301l1.74,1.414l-7.583,9.309L54.637,245.184L54.637,245.184"/>
<path id="path80" fill="#231F20" d="M221.264,235.635l1.705-1.465l7.803,9.121l-1.705,1.455L221.264,235.635L221.264,235.635"/>
<path id="path82" fill="#231F20" d="M49.886,241.006l8.026-8.914l1.668,1.492l-8.025,8.918L49.886,241.006L49.886,241.006"/>
<path id="path84" fill="#231F20" d="M225.574,231.828l1.625-1.541l8.236,8.729l-1.645,1.545L225.574,231.828L225.574,231.828"/>
<path id="path86" fill="#231F20" d="M45.333,236.615l8.437-8.531l1.604,1.574l-8.44,8.541L45.333,236.615L45.333,236.615"/>
<path id="path88" fill="#231F20" d="M229.695,227.822l1.566-1.611l8.635,8.326l-1.563,1.617L229.695,227.822L229.695,227.822"/>
<path id="path90" fill="#231F20" d="M40.982,232.018l8.851-8.121l1.511,1.656l-8.833,8.117L40.982,232.018L40.982,232.018"/>
<path id="path92" fill="#231F20" d="M233.633,223.627l1.482-1.688l9.025,7.914l-1.477,1.689l-9.033-7.916l0,0"/>
<path id="path94" fill="#231F20" d="M36.87,227.229l9.2-7.689l1.447,1.721l-9.204,7.682L36.87,227.229L36.87,227.229"/>
<path id="path96" fill="#231F20" d="M237.381,219.254l1.393-1.752l9.391,7.477l-1.404,1.748L237.381,219.254L237.381,219.254"/>
<path id="path98" fill="#231F20" d="M32.963,222.252l9.575-7.24l1.354,1.777l-9.571,7.254L32.963,222.252L32.963,222.252"/>
<path id="path100" fill="#231F20" d="M240.916,214.73l1.311-1.824l9.74,7.01l-1.318,1.828L240.916,214.73L240.916,214.73"/>
<path id="path102" fill="#231F20" d="M29.305,217.094l9.896-6.771l1.271,1.85l-9.896,6.775L29.305,217.094L29.305,217.094"/>
<path id="path104" fill="#231F20" d="M244.26,209.959l1.244-1.871l9.986,6.66l-1.244,1.871L244.26,209.959L244.26,209.959"/>
<path id="path106" fill="#231F20" d="M25.884,211.775l10.212-6.297l1.177,1.904l-10.21,6.299L25.884,211.775L25.884,211.775"/>
<path id="path108" fill="#231F20" d="M247.348,205.125l1.16-1.926l10.293,6.15l-1.162,1.934L247.348,205.125L247.348,205.125"/>
<path id="path110" fill="#231F20" d="M22.741,206.367l10.435-5.922l1.113,1.951l-10.44,5.932L22.741,206.367L22.741,206.367"/>
<path id="path112" fill="#231F20" d="M250.213,200.141l1.063-1.986l10.588,5.658l-1.059,1.98L250.213,200.141L250.213,200.141"/>
<path id="path114" fill="#231F20" d="M19.821,200.754l10.706-5.418l1.011,2.004l-10.702,5.416L19.821,200.754L19.821,200.754"/>
<path id="path116" fill="#231F20" d="M252.836,195.039l0.959-2.033l10.85,5.123l-0.961,2.025L252.836,195.039L252.836,195.039"/>
<path id="path118" fill="#231F20" d="M17.179,195.008l10.955-4.902l0.915,2.057l-10.96,4.896L17.179,195.008L17.179,195.008"/>
<path id="path120" fill="#231F20" d="M255.225,189.809l0.855-2.076l11.088,4.58l-0.863,2.082L255.225,189.809L255.225,189.809"/>
<path id="path122" fill="#231F20" d="M14.8,189.145l11.179-4.355l0.814,2.09l-11.176,4.352L14.8,189.145L14.8,189.145"/>
<path id="path124" fill="#231F20" d="M257.352,184.479l0.758-2.119l11.314,4.033l-0.76,2.123L257.352,184.479L257.352,184.479"/>
<path id="path126" fill="#231F20" d="M12.696,183.17l11.381-3.803l0.714,2.127l-11.383,3.795L12.696,183.17L12.696,183.17"/>
<path id="path128" fill="#231F20" d="M259.248,178.98l0.684-2.145l11.441,3.609l-0.676,2.146L259.248,178.98L259.248,178.98"/>
<path id="path130" fill="#231F20" d="M10.889,177.094l11.547-3.236l0.598,2.168l-11.549,3.232L10.889,177.094L10.889,177.094"/>
<path id="path132" fill="#231F20" d="M260.875,173.482l0.561-2.174l11.615,3.033l-0.557,2.176L260.875,173.482L260.875,173.482"/>
<path id="path134" fill="#231F20" d="M9.353,170.949l11.7-2.645l0.5,2.184l-11.706,2.65L9.353,170.949L9.353,170.949"/>
<path id="path136" fill="#231F20" d="M262.244,167.912l0.457-2.201l11.752,2.441l-0.465,2.203L262.244,167.912L262.244,167.912"/>
<path id="path138" fill="#231F20" d="M8.117,164.818l11.782-2.213l0.426,2.199L8.52,167.02L8.117,164.818L8.117,164.818"/>
<path id="path140" fill="#231F20" d="M263.352,162.285l0.34-2.227l11.857,1.852l-0.338,2.213L263.352,162.285L263.352,162.285"/>
<path id="path142" fill="#231F20" d="M7.171,158.549l11.877-1.625l0.307,2.225l-11.887,1.623L7.171,158.549L7.171,158.549"/>
<path id="path144" fill="#231F20" d="M264.184,156.723l0.26-2.236l11.922,1.395l-0.26,2.236L264.184,156.723L264.184,156.723"/>
<path id="path146" fill="#231F20" d="M6.521,152.236l11.944-1.021l0.191,2.242l-11.945,1.021L6.521,152.236L6.521,152.236"/>
<path id="path148" fill="#231F20" d="M264.764,151.445l0.146-2.238l11.975,0.787l-0.141,2.242L264.764,151.445L264.764,151.445"/>
<path id="path150" fill="#231F20" d="M6.144,145.986l11.992-0.563l0.104,2.238l-11.994,0.572L6.144,145.986L6.144,145.986"/>
<path id="path152" fill="#231F20" d="M265.023,146.01l0.08-2.236l12,0.414l-0.072,2.242L265.023,146.01L265.023,146.01"/>
<path id="path154" fill="#231F20" d="M6.078,141.89l0.011-2.246l12.001,0.03l-0.011,2.256L6.078,141.89L6.078,141.89"/>
<path id="path156" fill="#231F20" d="M265.104,138.255l12-0.194l0.033,2.256l-12.002,0.188L265.104,138.255L265.104,138.255"/>
<path id="path158" fill="#231F20" d="M6.199,135.546l0.119-2.243l11.979,0.652l-0.119,2.235L6.199,135.546L6.199,135.546"/>
<path id="path160" fill="#231F20" d="M264.838,132.525l11.971-0.779l0.143,2.237l-11.963,0.783L264.838,132.525L264.838,132.525"/>
<path id="path162" fill="#231F20" d="M6.604,129.299l0.217-2.235l11.949,1.092l-0.21,2.244L6.604,129.299L6.604,129.299"/>
<path id="path164" fill="#231F20" d="M264.307,126.734l11.932-1.235l0.234,2.237l-11.936,1.233L264.307,126.734L264.307,126.734"/>
<path id="path166" fill="#231F20" d="M7.309,122.995l0.312-2.22l11.881,1.698l-0.315,2.217L7.309,122.995L7.309,122.995"/>
<path id="path168" fill="#231F20" d="M263.504,121.054l11.857-1.823l0.346,2.215l-11.859,1.821L263.504,121.054L263.504,121.054"/>
<path id="path170" fill="#231F20" d="M8.293,116.73l0.427-2.198l11.785,2.301l-0.438,2.199L8.293,116.73L8.293,116.73"/>
<path id="path172" fill="#231F20" d="M262.441,115.415l11.75-2.412l0.451,2.204l-11.75,2.405L262.441,115.415L262.441,115.415"/>
<path id="path174" fill="#231F20" d="M9.563,110.595l0.521-2.184l11.681,2.747l-0.514,2.184L9.563,110.595L9.563,110.595"/>
<path id="path176" fill="#231F20" d="M261.109,109.824l11.627-2.974l0.551,2.175L261.66,112L261.109,109.824L261.109,109.824"/>
<path id="path178" fill="#231F20" d="M11.135,104.458l0.635-2.154l11.529,3.315l-0.637,2.155L11.135,104.458L11.135,104.458"/>
<path id="path180" fill="#231F20" d="M259.518,104.307l11.465-3.541l0.666,2.139l-11.475,3.546L259.518,104.307L259.518,104.307"/>
<path id="path182" fill="#231F20" d="M12.992,98.397l0.73-2.121l11.358,3.885l-0.734,2.133L12.992,98.397L12.992,98.397"/>
<path id="path184" fill="#231F20" d="M257.658,98.797l11.324-3.967l0.742,2.125l-11.33,3.955L257.658,98.797L257.658,98.797"/>
<path id="path186" fill="#231F20" d="M15.134,92.438l0.832-2.083l11.14,4.446l-0.832,2.094L15.134,92.438L15.134,92.438"/>
<path id="path188" fill="#231F20" d="M255.547,93.442l11.131-4.5l0.836,2.083l-11.119,4.497L255.547,93.442L255.547,93.442"/>
<path id="path190" fill="#231F20" d="M17.54,86.579l0.936-2.045l10.915,4.999l-0.934,2.043L17.54,86.579L17.54,86.579"/>
<path id="path192" fill="#231F20" d="M253.199,88.203l10.895-5.031l0.941,2.033l-10.896,5.031L253.199,88.203L253.199,88.203"/>
<path id="path194" fill="#231F20" d="M20.212,80.918l1.01-2.003l10.722,5.388l-1.016,2.006L20.212,80.918L20.212,80.918"/>
<path id="path196" fill="#231F20" d="M250.596,83.063l10.65-5.54l1.033,1.996l-10.645,5.538L250.596,83.063L250.596,83.063"/>
<path id="path198" fill="#231F20" d="M23.157,75.321l1.11-1.953l10.447,5.911l-1.11,1.952L23.157,75.321L23.157,75.321"/>
<path id="path200" fill="#231F20" d="M247.766,78.056l10.369-6.042l1.129,1.943L248.896,80L247.766,78.056L247.766,78.056"/>
<path id="path202" fill="#231F20" d="M26.372,69.862l1.195-1.892l10.155,6.41l-1.202,1.891L26.372,69.862L26.372,69.862"/>
<path id="path204" fill="#231F20" d="M244.701,73.198l10.076-6.541l1.221,1.882l-10.064,6.541L244.701,73.198L244.701,73.198"/>
<path id="path206" fill="#231F20" d="M29.834,64.573l1.288-1.842l9.822,6.892l-1.292,1.843L29.834,64.573L29.834,64.573"/>
<path id="path208" fill="#231F20" d="M241.432,68.466l9.742-6.997l1.311,1.824l-9.756,6.996L241.432,68.466L241.432,68.466"/>
<path id="path210" fill="#231F20" d="M33.533,59.434l1.371-1.772l9.493,7.363l-1.377,1.771L33.533,59.434L33.533,59.434"/>
<path id="path212" fill="#231F20" d="M237.92,63.902l9.406-7.451l1.395,1.76l-9.395,7.441L237.92,63.902L237.92,63.902"/>
<path id="path214" fill="#231F20" d="M37.469,54.485l1.464-1.703l9.117,7.807l-1.466,1.7L37.469,54.485L37.469,54.485"/>
<path id="path216" fill="#231F20" d="M234.211,59.496l9.045-7.885l1.484,1.692l-9.049,7.886L234.211,59.496L234.211,59.496"/>
<path id="path218" fill="#231F20" d="M41.636,49.717l1.544-1.632l8.726,8.234l-1.542,1.632L41.636,49.717L41.636,49.717"/>
<path id="path220" fill="#231F20" d="M230.313,55.276l8.664-8.302l1.553,1.62l-8.664,8.304L230.313,55.276L230.313,55.276"/>
<path id="path222" fill="#231F20" d="M45.973,45.223l1.596-1.574L56,52.181l-1.598,1.574L45.973,45.223L45.973,45.223"/>
<path id="path224" fill="#231F20" d="M226.203,51.242l8.271-8.705l1.625,1.542l-8.266,8.703L226.203,51.242L226.203,51.242"/>
<path id="path226" fill="#231F20" d="M50.561,40.865l1.664-1.494l8.021,8.927l-1.67,1.505L50.561,40.865L50.561,40.865"/>
<path id="path228" fill="#231F20" d="M221.92,47.393l7.848-9.085l1.707,1.464l-7.846,9.086L221.92,47.393L221.92,47.393"/>
<path id="path230" fill="#231F20" d="M55.34,36.724l1.73-1.406l7.596,9.291l-1.747,1.423L55.34,36.724L55.34,36.724"/>
<path id="path232" fill="#231F20" d="M217.426,43.696l7.514-9.352l1.744,1.397l-7.516,9.357L217.426,43.696L217.426,43.696"/>
<path id="path234" fill="#231F20" d="M60.309,32.81l1.801-1.332l7.134,9.655l-1.801,1.334L60.309,32.81L60.309,32.81"/>
<path id="path236" fill="#231F20" d="M212.805,40.273l7.055-9.705l1.826,1.32l-7.072,9.71L212.805,40.273L212.805,40.273"/>
<path id="path238" fill="#231F20" d="M65.444,29.134l1.874-1.254l6.661,9.989l-1.871,1.251L65.444,29.134L65.444,29.134"/>
<path id="path240" fill="#231F20" d="M208.023,37.067l6.59-10.037l1.881,1.24l-6.592,10.029L208.023,37.067L208.023,37.067"/>
<path id="path242" fill="#231F20" d="M70.768,25.7l1.918-1.151l6.172,10.289l-1.925,1.146L70.768,25.7L70.768,25.7"/>
<path id="path244" fill="#231F20" d="M203.102,34.081l6.109-10.325l1.936,1.144l-6.111,10.325L203.102,34.081L203.102,34.081"/>
<path id="path246" fill="#231F20" d="M76.224,22.512l1.973-1.059l5.671,10.576l-1.979,1.061L76.224,22.512L76.224,22.512"/>
<path id="path248" fill="#231F20" d="M198.057,31.337l5.596-10.615l1.996,1.051l-5.609,10.615L198.057,31.337L198.057,31.337"/>
<path id="path250" fill="#231F20" d="M81.832,19.58l2.036-0.961l5.148,10.837l-2.029,0.972L81.832,19.58L81.832,19.58"/>
<path id="path252" fill="#231F20" d="M192.885,28.833l5.078-10.866l2.029,0.943l-5.074,10.865L192.885,28.833L192.885,28.833"/>
<path id="path254" fill="#231F20" d="M87.525,16.955l2.051-0.881l4.759,11.019l-2.065,0.889L87.525,16.955L87.525,16.955"/>
<path id="path256" fill="#231F20" d="M187.592,26.57l4.551-11.106l2.074,0.851l-4.539,11.106L187.592,26.57L187.592,26.57"/>
<path id="path258" fill="#231F20" d="M93.37,14.568l2.107-0.788l4.204,11.241L97.588,25.8L93.37,14.568L93.37,14.568"/>
<path id="path260" fill="#231F20" d="M182.217,24.57l3.994-11.32l2.125,0.74l-3.992,11.316L182.217,24.57L182.217,24.57"/>
<path id="path262" fill="#231F20" d="M99.343,12.446l2.145-0.679l3.654,11.427l-2.146,0.683L99.343,12.446L99.343,12.446"/>
<path id="path264" fill="#231F20" d="M176.75,22.806l3.439-11.501l2.146,0.639l-3.43,11.504L176.75,22.806L176.75,22.806"/>
<path id="path266" fill="#231F20" d="M105.4,10.614l2.18-0.579l3.082,11.598l-2.166,0.578L105.4,10.614L105.4,10.614"/>
<path id="path268" fill="#231F20" d="M171.143,21.284l3-11.621l2.178,0.562l-3.002,11.618L171.143,21.284L171.143,21.284"/>
<path id="path270" fill="#231F20" d="M111.543,9.061l2.199-0.471l2.508,11.729l-2.194,0.472L111.543,9.061L111.543,9.061"/>
<path id="path272" fill="#231F20" d="M165.535,20.05l2.42-11.752l2.199,0.452l-2.416,11.75L165.535,20.05L165.535,20.05"/>
<path id="path274" fill="#231F20" d="M117.685,7.833l2.208-0.394l2.074,11.82l-2.212,0.389L117.685,7.833L117.685,7.833"/>
<path id="path276" fill="#231F20" d="M159.881,19.076l1.834-11.855l2.229,0.337l-1.848,11.869L159.881,19.076L159.881,19.076"/>
<path id="path278" fill="#231F20" d="M123.953,6.858l2.221-0.271l1.487,11.901l-2.235,0.278L123.953,6.858L123.953,6.858"/>
<path id="path280" fill="#231F20" d="M154.117,18.348l1.393-11.92l2.219,0.256l-1.395,11.924L154.117,18.348L154.117,18.348"/>
<path id="path282" fill="#231F20" d="M130.255,6.186l2.238-0.168l0.873,11.966l-2.237,0.171L130.255,6.186L130.255,6.186"/>
<path id="path284" fill="#231F20" d="M148.396,17.906l0.783-11.972l2.248,0.151l-0.791,11.973L148.396,17.906L148.396,17.906"/>
<path id="path286" fill="#231F20" d="M136.584,5.807l2.244-0.053l0.265,12.003l-2.238,0.046L136.584,5.807L136.584,5.807"/>
<path id="path288" fill="#231F20" d="M142.658,17.723l0.188-11.996l2.256,0.036l-0.191,12.001L142.658,17.723L142.658,17.723"/>
<path id="path290" fill="#231F20" d="M206.377,195.369c0-0.004,0-0.004,0-0.01c-0.006,0-0.006-0.008-0.006-0.008L206.377,195.369"/>
<path id="path292" fill="#231F20" d="M177.605,122.441l-5.299,1.105c-0.348,0.071-0.561,0.405-0.488,0.754
	c0.072,0.339,0.408,0.562,0.752,0.488l1.816-0.371l0.492,0.549c0.125,0.143,0.297,0.211,0.469,0.211c0.156,0,0.311-0.05,0.432-0.159
	c0.266-0.238,0.281-0.637,0.053-0.894l-0.01-0.012l2.043-0.425c0.352-0.07,0.574-0.413,0.498-0.758
	C178.295,122.582,177.959,122.37,177.605,122.441"/>
<path id="path294" fill="#231F20" d="M232.504,201.793c-0.049-0.027-0.105-0.047-0.16-0.055
	c-0.004-0.053-10.525-1.879-11.408-19.021c3.637,3.893,6.348,6.711,6.348,6.717c0.119,0.127,0.289,0.193,0.459,0.193
	c0.156,0,0.316-0.055,0.441-0.176c0.248-0.248,0.26-0.646,0.014-0.898c-0.014-0.02-7.574-7.863-14.447-15.625
	c-0.063-0.064-0.146-0.068-0.225-0.104c1.998-4.963,3.443-10.158,3.449-14.887c0-0.467-0.012-0.918-0.033-1.332
	c2.188-1.32,4.848-1.561,6.447-1.561c0.855,0,1.367,0.066,1.367,0.066c0.35,0.041,0.668-0.197,0.721-0.547
	c0.039-0.346-0.205-0.664-0.547-0.711v-0.008c-0.021,0-0.621-0.078-1.541-0.078c-1.824,0.002-4.955,0.262-7.566,2.049
	c-0.809,0.561-1.57,1.271-2.215,2.162c-2.113,2.99-11.41,10.74-17.514,15.639c-2.025,1.641-3.729,2.98-4.695,3.75
	c-0.152,0.127-0.342,0.338-0.543,0.588c-0.076,0.063-0.248,0.238-0.502,0.496c0.973-8.389,5.5-35.813,24.141-58.119
	c0.691,0.12,1.389,0.188,2.098,0.188c0.307,0,0.611-0.014,0.912-0.043l-4.658,18.275c-0.084,0.342,0.125,0.697,0.463,0.778
	c0.338,0.088,0.691-0.119,0.773-0.456l4.789-18.789c0.006-0.005,0.006-0.005,0.006-0.009c1.309-0.285,2.609-0.829,3.852-1.697
	c1.689-1.186,7.49-4.058,9.252-7.09l5.4-4.354c0.016-0.047,1.096-1.028,2.309-2.5c2.334,6.158,3.885,14.667,5.225,26.203
	c0.463,4.03,0.66,7.994,0.66,11.831c0,14.167-2.701,26.456-4.6,34.125c-0.314-7.492-1.531-20.311-1.531-29.221
	c0-2.801,0.137-5.209,0.438-6.895c0.525-3.068,0.707-6.024,0.707-8.616c0-5.175-0.707-8.859-0.707-8.888
	c-0.072-0.348-0.41-0.567-0.748-0.499c-0.352,0.063-0.572,0.399-0.508,0.743c0.004,0.036,0.688,3.604,0.688,8.644
	c0,2.533-0.18,5.412-0.688,8.391c-0.324,1.82-0.455,4.281-0.455,7.121c0,10.316,1.6,25.705,1.6,32.148
	c0,0.889-0.033,1.602-0.086,2.098c0,0.023,0.02,0.037,0.02,0.061c-0.004,0-0.004,0.006-0.004,0.008
	c-0.402,1.676-0.598,3.471-0.598,5.287c0.086,5.602,1.559,11.316,3.99,13.75C240.754,201.154,236.455,201.559,232.504,201.793
	L232.504,201.793z M227.471,201.971c-0.459,0-0.889-0.012-1.273-0.02c-2.393-0.08-2.646-0.051-5.268-0.174
	c-1.289-0.059-2.582-0.115-3.857-0.174c-0.033-0.021-0.078-0.035-0.125-0.051c-4.092-0.896-9.613-7.047-9.623-7.047
	c-0.234-0.266-0.635-0.283-0.9-0.043c-0.258,0.232-0.285,0.625-0.047,0.896c0.156,0.141,3.428,3.879,7.105,6.066
	c-1.918-0.092-3.725-0.199-5.318-0.297c-1.787-0.117-3.289-0.232-4.375-0.342c-0.551-0.053-0.982-0.111-1.287-0.166
	c-0.154-0.02-0.283-0.047-0.355-0.068v0.016c-0.08-0.066-0.178-0.1-0.277-0.109c-0.217-1.061-0.432-2.416-0.432-3.666
	c0-1.004,0.137-1.914,0.449-2.49c0.789-1.625,6.938-10.346,11.137-20.277c2.27,2.563,4.584,5.102,6.695,7.377
	c-0.057,0.105-0.125,0.201-0.123,0.33c0.299,13.123,6.244,18.283,9.82,20.207C228.729,201.955,228.074,201.971,227.471,201.971
	L227.471,201.971z M203.971,207.637c-0.012,0.053-0.006,0.086,0.006,0.109h-0.006v0.045l0.006-0.008
	c0.029,0.662-1.545,2.27-2.09,2.613c-0.459,0.365-1.867,0.871-2.689,1.379c-0.188,0.125-0.574,0.195-1.039,0.195
	c-0.445,0-0.941-0.055-1.441-0.08c-0.768-0.035-2.693-0.721-2.693-0.721l-0.367-0.02c0,0-1.416,0.305-2.588,0.305
	c-0.23,0-0.451-0.01-0.631-0.035c-0.695,0.025-0.928-1.063-1.094-3.047c-0.02-0.139-0.029-0.225-0.029-0.363
	c0-0.461,0.088-0.941,0.223-1.422c0.287-1.061,0.822-2.064,1.111-2.705c0.5-1.109,1.467-4.588,1.488-6.207v-0.037l-0.555-0.023
	h0.555v-0.01c-0.021-1.133,0.994-3.943,2.48-7.418c1.557-3.766,2.719-15.65,2.738-15.689c0.008-0.08-0.004-0.168-0.025-0.242
	c6.141-4.965,14.984-12.283,17.32-15.539c0.316-0.445,0.67-0.836,1.055-1.176c0.006,0.135,0.006,0.264,0.006,0.396
	c0.02,14.008-13.586,33.092-14.953,35.779c-0.463,0.891-0.588,1.977-0.588,3.076c0,1.672,0.328,3.406,0.588,4.549
	c0.176,0.781,0.326,1.287,0.338,1.299C201.221,202.816,203.836,206.736,203.971,207.637L203.971,207.637z M190,181.334
	c-0.006-0.02,1.877-2.775,2.191-2.965c0.814-0.65,2.16-1.715,3.793-3.023c-0.219,1.941-0.76,6.396-1.436,9.992
	c-0.049-0.043-0.082-0.105-0.143-0.125c-3.746-1.148-4.5-2.484-4.5-3.48C189.9,181.6,189.977,181.465,190,181.334L190,181.334z
	 M185.008,192.061l-1.352-4.938c-1.111-2.855-1.486-5.363-1.486-7.523c0.01-4.475,1.588-7.5,2.076-8.791
	c0.658-1.717,4.756-9.643,4.756-9.65l2.475-5.307l0.389-1.633c0.084-0.342,0.193-0.777,0.303-1.309
	c0.684-2.82,1.553-7.746,1.676-9.678c0-0.133,0.01-0.249,0.01-0.376c-0.01-2.15-0.863-5.987-1.547-7.738
	c-0.35-0.851-0.451-1.584-0.451-2.292c0-0.598,0.086-1.185,0.172-1.811c0.152-1.195,1.721-7.063,2.051-8.769l7.797-0.385
	c0.08-0.022,2.637-0.308,4.457-1.419c0.295-0.19,0.393-0.578,0.211-0.87c-0.182-0.306-0.576-0.395-0.867-0.212
	c-1.449,0.903-3.908,1.216-3.908,1.225l-11.561,0.576c-0.35,0.022-0.629,0.32-0.602,0.678c0.012,0.339,0.301,0.607,0.648,0.607
	c0,0,0.006,0,0.02,0v-0.011l2.486-0.121c-0.398,1.894-1.814,7.221-1.996,8.532c-0.082,0.614-0.186,1.264-0.186,1.979
	c0,0.83,0.123,1.75,0.535,2.767c0.613,1.49,1.477,5.433,1.461,7.265c0,0.098,0,0.198,0,0.329c-0.109,1.709-0.984,6.699-1.639,9.441
	c-0.084,0.369-0.156,0.678-0.227,0.955c-0.865,0-3.182,0.039-6.543,0.344c-0.035,0.004-0.07,0.008-0.109,0.018
	c-3.436,0.311-7.939,0.9-13.07,1.994c1.42-3.152,2.387-6.234,2.387-8.961c0-0.27-0.01-0.537-0.027-0.791l3.932-8.398l0.033-0.079
	c0.061-0.13,0.072-0.268,0.051-0.388c0.947-0.443,1.924-1.021,2.617-1.793c1.625-1.841,5.932-8.97,5.949-8.994
	c0.027-0.047,0.055-0.1,0.068-0.148c0.375-0.56,0.775-1.195,1.16-1.896c0.006-0.018,0.061-0.166,0.152-0.377
	c0.023-0.043,0.086-0.031,0.109-0.074c0.123-0.327,0.234-0.679,0.344-1.038c0.547-1.271,1.375-3.153,2.238-4.803
	c0.113,0.079,1.416-0.723,1.664-0.803c4.744-1.798,6.27-7.893,6.316-7.936c0.01-0.114,0.021-0.258,0.021-0.481
	c2.387,2.791,8.389,9.182,15.1,11.045c-5.965,7.245-10.436,14.985-13.842,22.444c-0.219-2.442-0.281-4.46-0.281-5.802
	c0-1.194,0.049-1.85,0.049-1.85c0.014-0.358-0.246-0.658-0.6-0.68c-0.355-0.02-0.65,0.236-0.672,0.595h-0.004
	c0,0.012-0.047,0.703-0.047,1.935c0,1.732,0.084,4.532,0.488,7.948c0.006,0.043,0.043,0.07,0.057,0.111
	c-8.35,19.355-9.42,36.174-9.426,36.217c-0.004,0.08,0.043,0.15,0.064,0.23c-0.035,0.189-0.129,0.352-0.131,0.561
	c0,1.732,1.428,3.434,5.313,4.586c0.053,0.016,0.107,0.023,0.162,0.023c0.064,0,0.078-0.088,0.135-0.104
	c-0.289,1.439-0.604,2.688-0.93,3.455c-1.48,3.543-2.549,6.262-2.574,7.912v0.01c0,0.018,0,0.041,0.002,0.053
	c-0.002,0-0.002,0.008-0.002,0.008c0.016,0.471-0.145,1.369-0.369,2.32c-0.076-0.051-0.162-0.09-0.26-0.104
	C187.861,199.426,187.424,199.318,185.008,192.061L185.008,192.061z M180.568,168.494c-0.006,0.021-4.926,7.535-5.576,8.453
	c-0.643,0.945-0.643,2.354-0.668,3.486c0,0.58,0.025,1.053,0.047,1.299c0,0-0.004,0-0.012,0c0.021,0.498-0.426,2.037-0.426,2.037
	c-0.076,0.232-0.086,0.473-0.086,0.688c0.016,1.42,0.861,2.926,1.578,3.877c0.859,1.086,1.945,1.785,2.236,2.545
	c0.008,0.027,0.031,0.1,0.031,0.191c0.055,0.521-0.857,1.746-2.045,2.316c-0.668,0.346-2.314,0.553-4.076,0.545
	c-1.33,0-2.742-0.094-3.945-0.25c-1.717-0.232-1.826-1.506-1.873-2.34c0-0.26,0.029-0.404,0.029-0.404
	c-0.021,0.084,1.205-3.705,1.422-4.258c0.146-0.543,0.189-1.301,0.189-2.164c0-0.699-0.021-1.404-0.094-1.975
	c-0.021-0.121-0.012-0.133-0.012-0.133c-0.035-0.961,1.117-3.691,2.154-5.121c0.881-1.316,0.977-3.355,0.998-4.98
	c0-0.928-0.047-1.697-0.068-2.031c-0.016-0.098-0.016-0.52-0.016-1.051c0-2.871,0.098-10.348,0.105-11.865
	c5.131-1.143,9.664-1.758,13.168-2.096C182.824,165.223,180.518,168.451,180.568,168.494L180.568,168.494z M168.043,158.941
	c-4.502,8.258-10.975,15.834-11.475,17.205c-0.236,0.707-0.422,1.422-0.41,2.426c0,1.258,0.266,2.955,0.963,5.916
	c0.141,0.637,0.211,1.256,0.211,1.834c0,1.385-0.389,2.557-0.875,3.5l-0.086-0.857c-0.031-0.352-0.336-0.607-0.691-0.576
	c-0.057,0.018-2.48,0.158-3.879,2.268c-1.24,1.975-2.297,5.826-2.65,7.438c-0.182,0.803-0.551,1.609-0.789,2.078
	c-0.25-0.217-0.35-0.721-0.35-1.066h-0.006l0.045-0.166l-0.523-8.434l-0.244-0.48c-0.4-0.293-0.676-0.627-0.879-0.969
	c-0.023-0.045-0.053-0.092-0.072-0.133c-0.016-0.129-0.066-0.252-0.152-0.354c-0.236-0.613-0.303-1.314-0.303-2.051
	c0-0.729,0.059-1.463,0.09-2.143c-0.031-1.604,1.615-3.852,2.949-6.699c0.607-1.354,1.678-4.717,2.674-8.053
	c1.203-3.959,2.266-7.82,2.266-7.82c0.605-4.871,1.424-8.354,2.291-10.895c1.877-5.453,3.742-6.508,4.254-6.992
	c0.973-0.963,1.836-3.989,1.898-4.051c0-0.005,0-0.005,0-0.011l11.885-1.429c0.072-0.019,0.732-0.172,1.613-0.479l-3.68,7.845
	l-0.055,0.332c0.023,0.266,0.045,0.561,0.045,0.852c0,2.676-1.098,5.996-2.727,9.381
	C168.969,157.217,168.531,158.082,168.043,158.941L168.043,158.941z M157.674,207.068l-0.08,0.018l-3.488-9.498
	c-0.088-0.242-0.328-0.41-0.6-0.42c-0.262,0-0.504,0.152-0.604,0.408l-4.596,11.648l-0.084,0.018l1.162-8.23
	c0.004-0.025,0.004-0.049,0.004-0.072c0.301-0.541,0.768-1.508,1.01-2.572c0.318-1.492,1.426-5.391,2.479-7.025
	c0.605-0.959,1.633-1.373,2.293-1.549l0.146,1.646L157.674,207.068z M149.82,208.871l3.666-9.271l2.854,7.777L149.82,208.871z
	 M159.453,214.166c0.318-0.08,0.521-0.395,0.475-0.705l-0.816-5.453l3.053-0.719l17.91,3.73l-33.67,9.58l-17.11-5.611l17.366-4.066
	l-1.043,5.533c-0.063,0.328,0.143,0.648,0.455,0.73c0.322,0.092,0.65-0.082,0.762-0.387l2.426-6.486l7.518-1.764l1.918,5.223
	C158.805,214.078,159.141,214.246,159.453,214.166L159.453,214.166z M182.113,215.549l-35.1,10.313l0.01-4.104l35.09-9.982V215.549z
	 M145.75,225.664l-18.183-6.141v-3.77l18.187,5.979L145.75,225.664z M151.316,159.166c-0.332-0.102-0.689,0.098-0.779,0.432
	c-0.07,0.348-0.898,1.289-1.004,2.945c-0.018,0.83-0.789,0.828-0.928,0.852c-0.313-0.074-0.434-0.414-0.457-1.182
	c0-0.639,0.127-1.316,0.18-1.689c0.043-0.355-0.213-0.658-0.557-0.703c-0.354-0.039-0.67,0.203-0.711,0.561v-0.016
	c-0.023,0.287-0.188,1.061-0.188,1.848c-0.027,0.646,0.119,1.545,0.748,2.07c-0.031,0.248-0.119,0.957-0.25,1.748
	c-0.1,0.049-0.182,0.131-0.248,0.23c-0.506,0.805-1.451,1.105-2.318,1.105c-0.291,0-0.568-0.029-0.793-0.082
	c-0.779-0.133-2.559-1.598-2.573-1.598l-1.913-1.664c-0.178-0.15-0.299-0.273-0.383-0.367c0.298-0.072,0.868-0.176,1.101-1.08
	c0-0.057-0.007-0.143-0.022-0.234c0.119,0.01,0.271,0.039,0.397,0.068c0.115-0.068,1.683,1.842,1.717,2.021
	c0.33,0.303,0.339,0.271,0.613,0.311c0.917-0.107,1.926-0.977,2.286-1.174c0.686-0.768,0.582-1.648,0.65-2.318l0.016-0.049
	l-0.01-0.02h0.01c-0.031-0.316,0.857-4.145,1.027-4.527c0.227-0.596,0-0.232,1.832-2.729c0.133-0.092,0.49-0.428,2.305-2.086
	c1.012-0.941,1.838-1.154,2.48-1.16c0.564,0,0.98,0.189,1.221,0.328c-0.838,2.59-1.604,6.006-2.152,10.549
	c-0.006,0.018-1.01,3.602-2.141,7.381c-0.049,0.045-0.092,0.098-0.127,0.154l-1.285,2.074l-1.199,1.654
	c-0.271,0.352-0.34,0.301-0.34,0.344c-0.025,0-0.125-0.063-0.262-0.326c-0.154-0.234-0.219-0.498-0.236-0.498l-0.193-0.107h0.162
	c-0.041-0.506,0.598-2.465,0.869-2.826c0.348-0.6,0.5-1.592,0.691-2.688c0.139-0.832,0.248-1.629,0.301-2.066
	c0.566-0.076,1.82-0.439,1.963-2.023c0.076-1.311,0.65-1.783,0.938-2.674C151.854,159.609,151.66,159.264,151.316,159.166
	L151.316,159.166z M144.691,184.348c-0.025,0.615-0.088,1.379-0.088,2.172c0,0.434,0.02,0.879,0.084,1.322
	c-0.561-0.174-1.104-0.258-1.623-0.258c-2.871,0.045-5.046,2.129-7.904,3.053c-2.74,0.91-5.67,1.246-7.145,1.369
	c1.029-2.725,3.949-10.885,4.686-17.549c0-0.01,0.426-4.102,0.809-9.762c0.02-0.355-0.245-0.656-0.597-0.682
	c-0.354-0.018-0.662,0.238-0.684,0.602v-0.014c-0.382,5.643-0.8,9.713-0.8,9.729c-0.736,6.781-3.922,15.414-4.76,17.617
	c-1.512-0.492-4.309-2.803-6.96-5.221c0-0.023,0-0.047,0-0.074l-0.007-0.01c0-0.012-0.721-10.148-0.721-14.725
	c0-0.924,0.028-1.654,0.088-1.857c0.008-0.029-0.015-0.053-0.015-0.08c1.644-4.629,1.761-7.447,2.345-9.65
	c0.018-0.053-0.018-0.094-0.018-0.15c1.128-2.525,1.478-5.188,1.57-6.469c0-0.037,0-0.053,0-0.053
	c-0.03-0.705-0.618-2.682-0.618-2.738c0.007,0.01-0.108-0.488-0.264-1.168l1.141-0.967c0.01-0.008,0.01-0.023,0.021-0.039
	c0.313,0.523,0.671,1.078,1.078,1.555c1.053,1.166,3.503,2.273,5.785,2.299c0.469,0,0.931-0.053,1.367-0.172
	c1.175-0.416,1.611-1.186,1.654-1.066c0.865-0.238,1.503-0.93,1.843-0.916c0.904-0.27,1.394-1.059,1.654-1.553
	c0.163,0.018,0.357,0.031,0.571,0.031c0.639,0.037,1.876-0.213,1.997-1.48c0.057-1.072,0.115-3.402,0.135-4.258
	c0.524-0.41,1.604-1.439,2.057-3.239c1.042-0.068,2.95-0.304,2.959-0.304c1.914-0.593,2.5-2.189,2.477-3.473
	c0-0.792-0.172-1.531-0.352-2.088c-0.496-1.315-2.125-2.431-2.977-2.961c0.211-0.449,0.309-0.875,0.309-1.273
	c-0.02-1.328-0.931-1.987-0.983-2.034c-0.312-1.209-1.48-1.818-2.487-2.091L140.065,114c2.177-0.577,4.289-1.844,5.472-4.324
	l0.238,0.167c0.021,0.01,0.246,0.029,0.59,0.029c0.469,0,1.162-0.063,1.895-0.332c1.307-0.542,2.41-1.698,2.441-1.716
	c0.662-0.464,0.99-1.125,1.068-1.726l7.27,3.478c0.094,0.441,0.188,0.85,0.182,1.158c0,0.141-0.01,0.232-0.021,0.28
	c-0.084,0.173-0.09,0.396-0.09,0.563c0.039,1.302,1.053,1.949,1.09,2.004c0.076,0.047,0.162,0.089,0.252,0.102
	c0,0.104,0,0.211,0,0.315c0,1.041,0.064,2.172,0.277,3.433c0,0.027,0.27,2.244,1.643,4.229c-0.025,0.032-0.041,0.07-0.049,0.113
	h-0.014c0.016,0.035-0.729,1.924-1.088,2.09c-0.855,0.687-3.586,4.12-3.67,7.28c0,0.284,0.018,0.584,0.107,0.912
	c0.617,2.784,2.035,7.563,2.035,7.578c0.078,0.306,0.375,0.483,0.693,0.456l0.502-0.063c-0.336,0.934-1.049,2.761-1.34,2.946
	c-0.391,0.34-2.553,1.774-4.361,6.801c-0.391-0.188-0.945-0.369-1.643-0.369c-0.963-0.01-2.154,0.367-3.346,1.492
	c-1.613,1.486-2.131,1.945-2.236,2.039c-0.031,0.02-0.068,0.059-0.111,0.088l-0.008,0.008c-0.014,0.018-0.035,0.035-0.051,0.051
	c-0.598-1.457-0.832-2.754-0.832-3.916c-0.072-6.16,6.982-9.05,6.982-9.078c0.322-0.133,0.484-0.5,0.348-0.822
	c-0.123-0.325-0.498-0.482-0.813-0.35h-0.01c-0.02,0.013-2.191,0.865-4.232,2.74c-0.109-1.501-0.273-4.097-0.305-6.116
	c0.117-0.355,1.201-3.662,2.619-7.123c1.426-3.644,3.531-7.515,4.463-7.754c0.32-0.132,0.488-0.496,0.355-0.829
	c-0.129-0.337-0.496-0.488-0.83-0.354c-2.061,0.988-4.342,6.161-5.912,10.308c0.59-2.953,1.463-7.021,2.279-10.721
	c0.082-0.349-0.141-0.677-0.479-0.759c-0.344-0.081-0.688,0.145-0.758,0.483c-1.379,6.207-2.885,13.271-2.994,14.854
	c-0.039,0.354-0.039,0.767-0.039,1.211c0,2.914,0.369,7.602,0.404,8.045c-1.303,1.566-2.33,3.63-2.354,6.263
	c0,1.445,0.322,3.068,1.102,4.826c0.041,0.094,0.1,0.168,0.166,0.227c-0.982,1.332-1.012,1.395-1.229,1.973
	c-0.242,0.74-1.074,4.137-1.104,4.988c0,0.006,0,0.012,0,0.02l-0.012,0.049c0,0.209-0.031,0.592-0.078,0.9
	c-0.033,0.164-0.07,0.295-0.092,0.385l0.008,0.033c-0.064,0.09-0.945,0.584-1.326,0.803c-0.392-0.58-1.238-1.863-2.239-2.205
	c-0.224-0.055-0.508-0.105-0.808-0.105c-0.34,0-1.21,0.133-1.248,1.002c0,0.117,0.021,0.236,0.053,0.348
	c-0.317,0.086-0.934,0.225-1.119,1.15c0.034,0.605,0.384,0.939,0.932,1.43l1.915,1.656c0.052,0.025,1.727,1.541,3.141,1.891
	c0.305,0.064,0.668,0.109,1.055,0.109c0.688,0,1.48-0.145,2.178-0.547c-0.086,0.346-0.158,0.59-0.193,0.607
	c-0.469,0.785-1.043,2.49-1.074,3.525c0,0.16,0,0.402,0.186,0.676c0-0.18,0.137,1.307,1.621,1.52
	c0.563-0.01,0.979-0.352,1.363-0.852l0.262-0.357c-0.564,1.762-1.078,3.236-1.396,3.934
	C146.533,179.875,144.764,182.047,144.691,184.348L144.691,184.348z M113.308,180.508c1.52-1.625,2.938-3.404,3.37-4.777
	c0.381-0.779,0.729-1.576,1.049-2.326c0.087,3.82,0.439,9.514,0.611,12.041C115.651,182.9,113.431,180.613,113.308,180.508z
	 M108.624,183.295c-0.596-1.984-1.051-3.623-1.125-4.168c-0.277-1.855-2.205-5.938-2.868-7.336c4.573-0.904,7.997-3.443,9.667-5.789
	c0.015,0,0.023,0,0.034,0c2.332-0.342,3.982-1.506,5.233-2.965c-0.329,1.885-0.756,4.098-1.961,7.281
	c-0.008,0.012-0.99,2.648-2.119,4.957C114.933,177.398,110.246,181.807,108.624,183.295z M109.206,189.473
	c0.827,2.525,1.495,4.59,1.645,4.99c0.342,0.873,1.42,2.141,1.436,4.35c0,0.383-0.038,0.807-0.117,1.273
	c-0.043,0.17-0.093,0.383-0.142,0.58c-0.144,0.486-0.339,1.004-0.6,1.549c-2.299,4.559-2.434,8.758-12.488,8.863
	c-0.418,0-0.862-0.012-1.315-0.012l-2.778-0.26c-0.018-0.006-0.037-0.006-0.06-0.006c-0.019,0-0.044,0.006-0.068,0.006
	c-0.576-0.227-1.026-0.404-1.293-0.502c-1.353-0.461-14.533-5.693-20.441-8.518c-5.822-2.762-10.188-7.68-15.322-12.074
	c-0.104-0.08-0.194-0.16-0.273-0.25c-2.596-2.4-3.14-5.705-3.14-8.084c0-0.801,0.059-1.48,0.128-1.969
	c2.344,1.961,6.78,4.475,12.104,4.805c2.562,0.15,5.21,0.393,7.731,0.393c3.21-0.008,6.262-0.402,8.614-2.02
	c0.395,3.773,1.053,6.984,2.843,8.531c-0.007,0,2.003,1.697,2.231,1.887c0.207,0.184,0.656,0.479,1.16,0.842
	c0.247,0.172,0.479,0.355,0.648,0.498c0.173,0.133,0.165,0.189,0.203,0.17c0.128,0.254,0.438,1.166,0.444,1.471
	c-0.174,0.131-1.014,0.51-1.424,1.049c-0.124,0.227-0.261,0.586-0.276,1.111c-0.015,0.41,0.172,1.068,0.781,1.395
	c-0.021-0.01,0.171,0.127,0.528,0.146c0.345,0,0.695-0.199,0.95-0.512c0.234-0.283,0.64-0.434,0.891-0.477
	c0.475-0.223,1.845-0.537,2.479-1.588l2.123,4.434c0.344,0.303,0.87,0.607,1.509,0.631c0.2,0,0.39-0.053,0.555-0.143
	c0.264-0.246,0.771-0.541,0.81-1.27c0-0.162-0.028-0.311-0.088-0.463c-0.136-0.373-0.671-2.229-0.671-2.242l-0.625-2.146
	l0.464,0.615l1.519,2.568c0.146,0.109,0.618,0.92,1.647,1.023c0.164,0,0.289-0.043,0.371-0.074c0.397-0.129,1.263-0.527,1.252-1.506
	c0-0.275-0.057-0.535-0.161-0.828c-0.445-1.086-1.347-3.205-1.347-3.205c-0.026-0.043-0.445-0.885-1.054-1.814l0.443,0.17l3.6,2.324
	l0.414,0.096c0.059-0.045,0.683,0.023,1.245-0.586c0.176-0.26,0.195-0.492,0.195-0.645c-0.02-0.592-0.307-0.957-0.55-1.27
	c-0.241-0.26-3.035-3.717-3.047-3.725c-0.133-0.115-1.286-1.012-2.059-1.361c0.019-0.01-0.421-0.443-0.397-0.475
	c-0.372-0.771-1.786-1.932-2.115-2.273c-0.481-0.412-2.659-1.814-3.781-2.127c-0.89-0.111-2.317-0.633-2.355-0.941
	c0.008-0.02,0-0.027,0-0.033c0,0,0,0,0-0.002h-0.023c0.331-1.508,2.78-7.346,2.78-7.352l1.884-3.83
	c-0.009,0.006,0.22-0.43,0.559-1.111c0.502,0.547,2.438,2.354,5.907,2.377c0.279,0.561,2.742,5.727,2.946,7.373
	C106.429,180.648,107.953,185.531,109.206,189.473L109.206,189.473z M112.964,201.871c0.487,0.645,1.354,1.865,2.249,3.391
	c0.489,0.83,0.702,2.225,0.691,3.666c0,1.857-0.283,3.717-0.364,4.705c-0.05,1.23-0.9,1.363-3.348,4.121
	c-0.948,1.092-2.638,1.51-4.47,1.51c-1.856,0-3.781-0.406-4.976-0.742c-2.5-0.697-8.237-1.914-11.572-2.279
	c-2.973-0.27-9.573-4.203-11.255-4.982c-1.372-0.584-9.095-7.02-9.866-7.791c-1.164-1.033-3.289-1.426-4.198-1.621
	c0.038-0.02,0-0.02-0.052-0.02c-0.063,0.012-0.134,0.012-0.134-0.012c-1.648,0.154-6.582,3.861-7.151,4.188
	c-0.494,0.363-1.304,0.939-1.66,1.84c-0.102,0.195-0.132,0.461-0.132,0.658c0.021,0.621,0.286,1.004,0.445,1.402
	c0.488,1.018,1.497,0.961,1.745,1.107c0.366,0.129,0.972,0.334,1.475,0.498c-0.083,0.127-0.191,0.289-0.32,0.438
	c-0.144,0.186-0.293,0.363-0.417,0.484c-0.1,0.115-0.123,0.092-0.1,0.139c-0.81,0.516-0.628,1.123-0.628,1.457
	c-0.118,0.07-0.489,0.197-0.65,0.229c0.063-0.016-0.019-0.01-0.123-0.01c-0.281,0-0.729-0.059-1.053-0.059
	c-0.163,0-0.212,0.031-0.212,0.018c0.011,0,0.015-0.004,0.017-0.01c-0.229,0.01-1.233-0.152-1.303-0.162
	c0.008-0.004,0.022-0.016,0.022-0.016c-0.116-0.105-0.285-0.277-0.42-0.428c-0.059-0.08-0.109-0.15-0.141-0.195l-0.009,0.012
	c-0.303-0.865-2.912-5.338-3.025-6.279l-0.187-0.086l0.17,0.02c-0.047-1.111,1.975-6.164,2.962-8.256
	c1.11-2.467,1.122-5.037,1.203-6.314c0.017-0.707,0.548-1.365,0.812-1.668c4.983,4.281,9.389,9.221,15.439,12.109
	c6.023,2.879,19.11,8.08,20.583,8.584c0.271,0.09,0.82,0.305,1.507,0.57c2.561,1.014,7.393,3.203,7.914,3.764
	c0.25,0.24,0.658,0.24,0.897-0.012c0.243-0.256,0.243-0.658-0.006-0.889c-0.688-0.629-2.809-1.652-4.949-2.598
	c0.189,0.002,0.37,0.002,0.563,0.002c10.555,0.113,11.637-5.336,13.631-9.58C112.724,202.463,112.855,202.164,112.964,201.871
	L112.964,201.871z M52.305,171.918c-0.01-0.16-0.086-0.299-0.199-0.406c1.166-1.047,5.29-3.324,5.888-3.359
	c0.018,0.006,0.031,0.006,0.047,0.006h0.004h0.008v-0.023c0.94,0.053,2.92,0.025,4.651,0.193c1.267,0.084,2.402,0.471,2.39,0.578
	c0.742,0.85,1.118,4.328,1.999,5.301c0.515,0.424,4.483,3.654,4.483,3.666c0.265,0.221,0.666,0.188,0.898-0.092
	c0.23-0.273,0.186-0.678-0.089-0.904c-0.007,0-3.985-3.238-4.466-3.643c-0.151,0.1-0.875-3.791-1.823-5.117
	c-0.652-0.715-1.666-0.855-2.864-1c-0.016-0.018-0.034-0.037-0.055-0.051c-0.687-0.508-2.163-2.049-2.138-3.506
	c0,0,0.013-0.037,0.021-0.131c0.01-0.234,0.044-0.457,0.081-0.691c0.335-1.6,1.591-3.619,3.149-5.406
	c0.529-0.621,1.513-1.381,2.577-2.068c1.696-1.105,3.586-2.078,4.278-2.428c3.045,3.193,9.021,9.342,12.048,11.15
	c0.016,0.006,0.024,0.012,0.032,0.02c-0.563,2.355-0.94,4.977-0.94,7.869c0,0.336,0,0.713,0.029,1.113
	c0.088,2.625,0.162,5.445,0.366,8.104c-2.029,1.742-5.033,2.24-8.472,2.24c-2.439,0-5.066-0.246-7.642-0.396
	c-5.588-0.322-10.288-3.354-12.081-5.143c-0.182-0.184-0.33-0.348-0.43-0.465C52.779,175.818,52.324,171.918,52.305,171.918z
	 M50.803,171.059c-0.065,0.088-0.188,0.219-0.347,0.365c-0.943,0.867-2.952,2.043-3.524,2.375c-0.018,0-0.032,0-0.032,0
	c-3.505-0.072-3.997-1.938-4.103-4.457c0-1.74,0.428-3.568,0.561-4.75c0.043-2.004,4.146-4.57,5.545-4.891
	c0.181-0.018,0.368-0.037,0.556-0.059c0.032,0,0.07-0.004,0.107-0.004c0.741,0,1.888,0.135,2.946,0.281
	c1.246,0.18,2.34,0.357,2.724,0.393c0.041-0.064,1.237,0.656,2.389,1.387c1.014,0.637,1.994,1.271,2.178,1.389
	c-0.004,0.082-0.015,0.168-0.015,0.25c0,0.016-0.024,0.094-0.024,0.223c0.028,1.408,0.744,2.57,1.469,3.402
	c-1.37-0.064-2.625-0.047-3.041-0.064c-0.014-0.006-0.069-0.012-0.139-0.012h-0.008C56.506,167.035,52.014,169.668,50.803,171.059z
	 M44.418,158.203c-0.28-0.162-0.829-0.668-1.293-1.207c-1.46-1.623-3.19-1.363-5.523-1.523c-0.382-0.107-0.303-0.027-0.382-0.18
	c-0.073-0.578,1.304-2.328,1.304-2.34c0.374-0.535,0.698-1.041,0.99-1.572c2.253-4.092,2.714-9.934,2.714-15.91
	c0-4.445-0.249-8.977-0.292-12.845c0-0.082,0-0.133,0-0.232c0-9.351,5.565-13.038,5.531-13.088c0.021-0.013,0.037-0.029,0.05-0.042
	c2.12,0.385,4.296,0.637,6.46,0.792c-1.19,1.548-3.489,5.219-3.501,10.317c0,6.567,1.829,16.248,1.821,18.452
	c0,0-0.021,0.159,0.063,0.323c-0.085,1.002-0.625,4.425-1.355,7.74c-0.245,1.146-0.729,3.176-0.729,5.648
	c0,1.793,0.244,3.82,1.031,5.943c-0.627-0.07-1.231-0.117-1.741-0.117c-0.009,0-0.023,0-0.032,0c-0.049-0.006-0.096-0.006-0.145,0
	c-0.141,0-0.298,0.01-0.481,0.053c-0.013,0-0.035,0-0.05,0.01c-0.505,0.045-0.99,0.068-1.443,0.068
	C45.708,158.494,44.428,158.203,44.418,158.203L44.418,158.203z M35.982,154.984c-0.646-0.137-1.682-0.381-2.621-0.66
	c-0.773-0.223-1.541-0.479-2.091-0.711c-0.279-0.115-0.509-0.223-0.635-0.305l-0.052,0.051c-0.03-0.096-0.051-0.174-0.053-0.193
	c0.476-0.445,1.437-1.504,1.875-2.246c0.16-0.287,0.252-0.447,0.874-1.816c0.909-1.965,2.42-5.328,2.42-5.328
	c1.014-2.625,1.155-3.634,1.155-4.122c0-0.133,0-0.182-0.008-0.232l1.466-18.449c0.188-7.665,4.383-12.098,4.917-12.693
	c0.869,0.25,1.766,0.468,2.671,0.663c-1.673,1.564-5.24,5.804-5.24,13.456c0,0.043-0.009,0.155,0.011,0.309
	c0.034,3.852,0.293,8.365,0.293,12.765c0,5.9-0.507,11.609-2.562,15.296c-0.276,0.486-0.569,0.951-0.883,1.406
	C37.54,152.191,36.216,153.561,35.982,154.984L35.982,154.984z M29.688,152.223c-0.025-0.025-0.047-0.049-0.078-0.07l-4.224-2.918
	c-0.576-0.535-0.676-0.973-0.691-1.367c-0.02-0.648,0.471-1.166,0.45-1.182c0.011-0.012,5.861-5.957,8.606-11.802
	c1.481-4.612,2.005-15.428,2.018-15.465c0.657-5.384,2.056-8.421,3.231-10.093c0.872-1.222,1.571-1.658,1.872-1.827
	c0.335,0.131,0.669,0.248,1.012,0.358c-1.313,1.506-4.663,6.037-4.853,13.055l-1.457,18.548c0.01,0.143,0.01,0.194,0.01,0.194
	c0,0.178-0.091,1.113-1.061,3.629c0.008-0.021-1.502,3.328-2.402,5.285c-0.64,1.387-0.687,1.469-0.817,1.719
	C31.034,150.773,29.978,151.975,29.688,152.223L29.688,152.223z M39.435,101.429c0.002-0.855,0.247-1.415,0.465-1.754
	c1.29,1.135,2.987,2.223,5.035,2.234c0.237,0,0.484-0.012,0.744-0.036c2.761-0.408,5.678-1.21,7.767-1.2
	c0.957,0,1.709,0.165,2.196,0.531c1.459,1.024,3.881,3.57,7.039,3.593c1.064,0.011,2.199-0.302,3.323-1.044
	c2.937-1.945,5.677-3.891,6.993-4.833c0.03-0.024,0.066-0.047,0.1-0.072c0.018,2.18,0.427,3.381,0.444,3.426
	c0.17,2.135,0.5,4.083,0.905,5.77c-1.8,0.241-7.526,0.948-14.273,0.948c-1.631,0-3.322-0.057-5.019-0.136
	c-2.634-0.149-5.326-0.444-7.88-0.941c-1.405-0.262-2.776-0.582-4.073-0.979c-0.033-0.022-0.063-0.029-0.102-0.043
	c-0.635-0.193-1.252-0.39-1.846-0.612C39.825,104.067,39.435,102.493,39.435,101.429z M38.08,95.985
	c-0.343-0.232-0.976-2.065-0.94-3.344c-0.012-0.687,0.177-1.194,0.269-1.223c1.155-1.022,4.065-4.527,4.083-4.541
	c3.576-6.427,7.038-8.37,8.407-8.957c-0.467,3.039-0.784,6.596-0.862,7.546c-0.019,0.093-0.002,0.154-0.009,0.163v0.016
	c0.157,1.61,2.677,5.242,4.246,6.431c1.471,0.939,4.248,2.065,5.66,2.177c0.881,0.022,6.537,2.296,7.559,2.593l4.93,1.631
	c-1.454,1.04-3.721,2.633-6.126,4.205c-0.933,0.627-1.791,0.839-2.614,0.848c-2.429,0.026-4.699-2.188-6.289-3.362
	c-0.829-0.585-1.852-0.768-2.946-0.768c-2.385,0-5.287,0.828-7.934,1.204c-0.18,0.023-0.374,0.032-0.577,0.032
	c-1.673,0.009-3.254-1.028-4.492-2.172c-0.023-0.045-0.051-0.086-0.083-0.129c-0.066-0.077-0.144-0.133-0.229-0.17
	C39.202,97.254,38.54,96.402,38.08,95.985L38.08,95.985z M50.307,85.653c0.052-0.771,0.443-5.21,1-8.438
	c0.13-0.729,0.264-1.398,0.396-1.944c0.678-2.736,2.988-3.659,4.912-4.765c2.105-1.308,4.071-5.276,5.865-6.325
	c1.811-1.13,7.2-2.223,11.364-3.141c1.35-0.306,3.22-0.418,5.067-0.418c0.408,0,0.82,0.004,1.22,0.012
	c-4.454,0.794-9.904,2.279-12.534,5.085c-3.015,3.321-5.21,5.997-5.237,8.948c-0.011,1.354,0.507,2.688,1.548,4.005
	c2.692,3.345,5.522,6.464,8.773,6.521c0.361,0,0.722-0.036,1.083-0.122c-0.03,0.262-0.046,0.464-0.062,0.611
	c-0.06,1.056,0.11,6.192-0.403,10.12c-0.063,0.504-0.112,0.987-0.142,1.444c-0.044,0.02-0.075,0.037-0.115,0.063
	c0,0-0.127,0.089-0.361,0.255c-0.015-0.008-0.029-0.013-0.051-0.021l-0.013-0.013l-5.762-1.902
	c-0.933-0.253-6.376-2.529-7.841-2.652c-0.9-0.029-3.869-1.176-5.035-1.967c-1-0.527-3.564-4.49-3.687-5.271
	C50.299,85.712,50.307,85.683,50.307,85.653L50.307,85.653z M86.558,61.1c0.1-0.011,0.189-0.045,0.27-0.09
	c1.287,0.062,3.586,0.358,5.849,1.495c0.688,0.349,1.359,0.75,2.006,1.247c1.4,1.093,2.398,2.358,3.05,3.693
	c0.68,1.404,0.995,2.891,0.995,4.349c0,1.044-0.161,2.073-0.471,3.071c-0.455,1.476-1.201,2.872-2.014,4.04
	c-1.174,1.705-2.542,2.958-3.208,3.271c-1.289,0.623-3.054,1.104-3.833,3.486c-0.706,2.164-1.856,6.93-3.877,8.693
	c0.04-0.134-0.477,0.32-0.429,0.979c0,0.186,0.023,0.435,0.109,0.747c0.085,0.285,0.21,0.686,0.412,1.166
	c0.864,2.018,3.574,7.366,3.561,11.226c0.014,0-0.039,0.072,0.033,0.305c-0.033-0.108-0.043,0.034-0.043,0.205
	c0,4.038,0.729,7.889,1.715,11.04c1.209,3.323,2.512,7.001,4.265,7.533c0.594,0,2.159,0.55,2.428,0.935
	c0.811,0.851,2.837,1.653,3.458,1.937c0.218,0.046,0.619,0.31,0.838,0.46c-0.08,0.045-0.194,0.089-0.331,0.139
	c-0.703,0.228-1.386,0.301-1.966,0.301c-0.854,0-1.37-0.159-1.37-0.152c0.063,0.056-0.757-0.538-1.548-0.611
	c-0.012,0-0.025,0-0.144,0.026c-0.022,0.012-0.063,0.009-0.124,0.032c-0.655,0.178-0.99,0.64-1.186,0.697
	c-0.079,0.104-1.239,0.37-1.939,1.076c-0.077,0.054-0.141,0.13-0.184,0.221l-0.022,0.029c-0.006,0.008-0.009,0.021-0.014,0.032
	l-0.033,0.056c-0.076,0.11-0.11,0.229-0.116,0.347c-0.179,0.496-0.469,1.278-0.578,1.671c-0.14,0.554-0.421,2.156-0.482,2.929
	c0.029,0.767-0.149,1.299-0.141,1.306c-0.09,0.08-1.371,0.924-1.692,0.902c-0.264,0.007-0.589,0.042-0.916,0.042
	c-0.503,0.011-0.986-0.105-1.152-0.255c-0.563-0.458-1.298-1.381-2.041-1.974c-0.078-0.075-0.195-0.197-0.299-0.333
	c-0.388-0.508-0.758-1.311-0.758-2.394c0-0.267,0.012-0.517,0.059-0.735c0.312-2.091,1.479-3.398,1.651-4.421
	c0-0.029-0.014-0.047-0.014-0.047c-0.057-0.979-2.355-6.824-2.372-6.91c-0.086-0.163-3.73-5.117-4.26-6.193
	c-0.566-1.068-2.47-3.106-3.847-8.272c-0.457-1.752-0.854-3.86-1.072-6.381c-0.03-0.153-0.412-1.209-0.412-3.325
	c0-0.275,0-0.544,0.025-0.792c0.029-0.607,0.081-1.246,0.172-1.933c0.535-4.039,0.354-9.312,0.416-10.209
	c0.011-0.196,0.063-0.679,0.134-1.297c0.229-1.909,0.785-5.288,1.629-7.505c1.112-2.952,5.579-10.424,5.579-10.435
	c0.185-0.304,0.08-0.69-0.217-0.871c-0.097-0.062-0.212-0.092-0.323-0.092c-0.218,0-0.429,0.109-0.547,0.315
	c-0.015,0.015-4.463,7.436-5.676,10.621c-0.839,2.203-1.363,5.206-1.641,7.22c-0.027,0.005-0.061,0.014-0.093,0.024l-0.014-0.011
	c-0.381,0.143-0.745,0.205-1.132,0.205c-2.319,0.06-5.164-2.715-7.767-6.047c-0.917-1.168-1.28-2.19-1.28-3.213
	c-0.03-2.229,1.884-4.813,4.904-8.093C72.066,62.608,83.987,61.237,86.558,61.1L86.558,61.1z M95.046,58.993
	c0-0.023,0.213-0.06,0.424-0.104c0.267-0.063,0.508-0.109,0.508-0.109c0.329-0.071,0.55-0.384,0.498-0.72
	c-0.009-0.101-0.02-0.154-0.031-0.224v-0.052h-0.006c0.006-0.383,1.229-1.246,2.753-1.673c1.528-0.492,3.086-0.734,3.086-0.734
	c0.295-0.05,0.517-0.306,0.542-0.609c0-1.519,2.385-2.181,5.095-2.158c2.217,0,4.278,0.373,4.278,0.373
	c0.64-0.069,1.061-0.109,1.48-0.109c1.948-0.011,3.86,0.678,5.303,1.378c1.421,0.698,2.381,1.398,2.391,1.388l0.491,0.119
	c0.237-0.046,0.461-0.067,0.658-0.067c2.626-0.086,4.278,3.442,4.294,3.442l0.4,0.355c1.478,0.432,1.822,1.683,1.851,3.119
	c-0.008,1.277-0.346,2.39-0.405,2.744c-0.2,0.509,0.237,0.66-1.383,1.044c-0.063,0.008-0.131,0.008-0.216,0.008
	c-0.377,0.011-0.897-0.141-1.428-0.384c-1.63-0.718-1.654-0.347-3.709-1.642l-2.61-1.962c-0.202-0.151-0.468-0.175-0.692-0.051
	s-0.348,0.353-0.335,0.607c0,0,0.022,0.157,0.022,0.434c0.021,0.606-0.152,1.724-0.525,2.04c-0.729,0.653-0.8,0.604-1.073,0.627
	c-0.028,0-0.12-0.012-0.261-0.012c-0.025-0.003-0.044-0.003-0.066,0c-1.208,0.129-2.245,1.428-3.017,1.834
	c-0.955,0.577-2.102,1.793-3.854,1.861c-0.108,0.019-2.144,0.444-3.56,0.438c-0.511,0.007-0.954-0.08-1.015-0.132
	c-0.408-0.214-0.832-0.265-1.244-0.265c-0.762,0-1.553,0.153-2.036,0.153c-0.146,0-0.262-0.014-0.316-0.036
	c-0.292-0.749-1.001-1.661-2.189-2.435c-0.081-0.195-0.168-0.389-0.262-0.581c-0.741-1.517-1.877-2.943-3.424-4.151
	c-0.568-0.441-1.152-0.813-1.737-1.131c-0.004-0.048-0.021-0.095-0.034-0.145v-0.009c-0.07-0.163-0.104-0.315-0.104-0.436
	C93.539,60.238,94.589,59.216,95.046,58.993L95.046,58.993z M123.954,67.935c-0.345,0.94-2.274,5.419-2.74,7.677
	c-0.153,0.579-0.192,0.551-0.192,0.568c-0.044,0.029-0.204-0.079-0.346-0.202c-0.119-0.101-0.242-0.205-0.242-0.19
	c-0.214-0.233-0.535-0.274-0.789-0.123c-0.006,0-0.012,0.006-0.019,0.006c-0.05,0.032-0.097,0.071-0.141,0.117
	c0,0,0,0.007-0.001,0.007c0,0.003-0.008,0.008-0.012,0.016c-0.043,0.036-0.67,0.743-0.906,0.888
	c-0.033,0.061-0.617,0.127-0.97,0.159l-1.053-1.14c-0.249-0.256-0.648-0.277-0.904-0.04c-0.258,0.236-0.282,0.644-0.039,0.897
	l0.889,0.969c-0.087,0.097-0.172,0.192-0.248,0.248l-0.014,0.043c-0.715,0.302-1.213,0.785-1.416,1.69
	c-0.123,0.425,0.18,0.241-0.41,0.425c-0.009-0.014-0.018-0.014-0.035,0c-0.011,0-0.018,0-0.018,0
	c-0.611,0.05-2.891-1.106-2.898-1.106l-3.727-2.021l-0.538-0.294l-0.471-0.054l-8.86,2.292c0.654-1.06,1.224-2.257,1.629-3.525
	C99.81,74.126,100,72.968,100,71.794c0-0.656-0.058-1.319-0.171-1.979c0.173,0.239,0.288,0.454,0.345,0.61
	c0.295,0.721,1.002,0.8,1.479,0.8c0.674-0.009,1.445-0.16,2.036-0.15c0.304,0,0.523,0.042,0.625,0.104
	c0.487,0.249,1.014,0.279,1.634,0.293c1.631,0,3.693-0.45,3.716-0.45c2.207-0.087,3.698-1.681,4.355-2.032
	c0.772-0.54,2.099-1.591,2.324-1.664c0.016,0,0.027,0,0.035,0v-0.004l0.063,0.015c0.007,0,0.102,0.012,0.265,0.012
	c0.586,0.031,1.217-0.253,1.964-0.99c0.617-0.655,0.806-1.493,0.871-2.185l1.658,1.25c1.785,1.142,2.394,1.2,3.235,1.495
	C124.288,67.163,124.124,67.498,123.954,67.935L123.954,67.935z M105.348,82.958c-0.28,0.348-0.615,0.65-1.01,0.9l-3.272,2.181
	c-0.307,0.192-0.386,0.584-0.184,0.889c0.191,0.293,0.595,0.375,0.889,0.176l3.265-2.17c0.145-0.099,0.287-0.205,0.425-0.31
	c-0.019,0.682-0.061,1.521-0.146,1.933c-0.227,0.173-0.889,0.506-1.693,0.867c-3.151,1.398-8.969,3.425-8.976,3.425l-3.985,2.003
	l-4.286,2.152c2.43-2.544,3.366-6.997,4.034-8.929c0.641-1.842,1.653-1.994,3.192-2.763c0.952-0.477,2.194-1.646,3.392-3.267
	c0.151,0.123,0.358,0.174,0.568,0.128l-0.009-0.012l9.182-2.377c0.003,0.14,0.015,0.34,0.015,0.596
	C106.748,79.493,106.523,81.537,105.348,82.958L105.348,82.958z M107.942,91.769l-0.922-0.242l-0.374,0.021
	c-0.063,0.059-2.464,0.781-3.33,1.821c-0.611,0.801-1.403,2.455-1.403,4.466c0,0.125,0.014,0.203,0.014,0.227
	c-0.043,0-0.014,0.119-0.014,0.174c0,0.534-0.029,1.09-0.029,1.636c-0.039,0.99,0.189,2.194,1.206,2.938
	c-1.591-0.067-3.458-0.143-3.746-0.17c-5.584-0.384-7.438-5.611-7.467-5.611c-0.226-0.386-0.322-0.873-0.313-1.398
	c0-0.836,0.202-1.697,0.261-1.938l3.315-1.668c-0.06,0.028,5.749-1.996,8.994-3.432c0.04-0.021,0.078-0.044,0.115-0.065
	c0.043,0.102,0.119,0.188,0.206,0.26C104.49,88.787,106.88,90.589,107.942,91.769L107.942,91.769z M110.685,93.823
	c0.133,0.239,0.322,0.618,0.39,0.823c-0.349,0.183-1.276,0.546-1.733,0.53c-0.125,0-0.224-0.031-0.224-0.045l-0.687-0.35
	c-0.318-0.166-0.7-0.043-0.863,0.278c-0.164,0.31-0.041,0.692,0.273,0.862l0.699,0.354c0.275,0.133,0.523,0.172,0.801,0.172
	c1.043-0.025,2.127-0.536,2.632-0.857c0.297-0.245,0.407-0.559,0.399-0.809c-0.023-0.366-0.138-0.718-0.276-1.019l0.298-0.04
	c-0.016,0.019,2.963,0.479,3.439,0.521c0.175,0.009,1.437,0.226,2.317,0.379c-0.008,0.008-0.02,0.011-0.028,0.015
	c-0.296,0.181-0.611,0.287-0.611,0.287l-2.966,0.492c-0.214,0.032-0.385,0.164-0.475,0.365c-0.09,0.195-0.07,0.408,0.037,0.599
	l0.954,1.55c0.109,0.191,0.14,0.332,0.14,0.483c0.079,0.611-1.078,1.419-1.067,1.43l-0.31,0.676
	c0.086,0.368,0.115,0.696,0.115,0.978c-0.009,1.752-1.054,2.127-1.031,2.168c-0.936,0.615-1.737,0.816-2.535,0.816
	c-1.612,0.015-3.239-0.926-4.593-1.702c-0.505-0.284-0.979-0.55-1.459-0.747c-1.059-0.462-1.122-1.004-1.162-2.16
	c0-0.504,0.025-1.061,0.025-1.636l-0.009-0.034c0.015-0.334,0.009-0.366,0.009-0.366c-0.009-1.646,0.704-3.14,1.153-3.694
	c0.172-0.332,1.981-1.083,2.558-1.325l1.909,0.505L110.685,93.823z M83.949,137.46l-1.886,0.81
	c-0.564-1.843-2.011-6.768-3.127-12.096c-0.786-3.728-0.951-6.834-0.951-8.846c0-0.36,0.011-0.675,0.021-0.961
	c0.266,0.409,0.472,0.699,0.559,0.879c0.679,1.342,4.256,6.161,4.283,6.217c0.027,0.077,2.281,6.174,2.212,6.307l0.011,0.019
	c0.11-0.019-1.281,1.972-1.632,4.214c-0.068,0.323-0.087,0.667-0.087,0.972C83.352,135.971,83.613,136.814,83.949,137.46
	L83.949,137.46z M53.108,138.826h0.462c-0.013-2.525-1.817-12.038-1.826-18.452c-0.008-5.983,3.496-9.834,3.805-10.229
	c1.564,0.077,3.116,0.109,4.625,0.109c7.027,0,12.947-0.737,14.596-0.965c0.65,2.304,1.439,4.003,2.141,5.268
	c-0.02,0.042-0.062,0.068-0.067,0.117h-0.006c0,0.023-0.128,0.984-0.128,2.654c0,2.082,0.174,5.269,0.98,9.099
	c1.158,5.538,2.661,10.627,3.191,12.355l-2.49,1.066c0.088-0.034-6.307,1.549-7.775,1.707c-1.601,0.243-7.81,1.269-8.051,5.51
	c0,0-0.011,0.131,0.027,0.289c0.007,0.432,0.007,0.906,0.007,1.355c0,0.779-0.034,1.414-0.034,1.992
	c-0.023,1.096,0.16,2.098,1.084,2.795c0.663,0.525,1.289,0.941,1.743,1.227c-0.81,0.568-1.544,1.162-2.07,1.773
	c-1.431,1.656-2.658,3.492-3.226,5.256c-1.088-0.732-3.796-2.564-4.774-2.723c-0.225-0.01-1.386-0.201-2.615-0.367
	c0-0.08-0.013-0.15-0.043-0.225c-0.861-2.094-1.111-4.109-1.111-5.902c0-2.303,0.455-4.213,0.699-5.391
	c0.73-3.361,1.295-6.745,1.329-8.242L53.108,138.826z M94.232,184.053c0.535,0.082,3.154,1.709,3.213,1.824
	c0.248,0.172,1.796,1.752,1.789,1.771c0.284,0.686,0.898,1.076,0.928,1.121c0.611,0.273,1.807,1.17,1.844,1.191
	c0.025,0.047,2.675,3.328,2.979,3.674c0.084,0.082,0.158,0.236,0.196,0.334c-0.017,0-0.04,0.006-0.064,0.01l-3.514-2.246
	l-2.856-1.096c-0.295-0.115-0.63,0.008-0.783,0.285c-0.152,0.27-0.081,0.613,0.167,0.811c1.007,0.77,2.34,3.307,2.356,3.32
	c0,0.006,0.887,2.08,1.309,3.109c0.06,0.17,0.08,0.314,0.08,0.377c0,0.127,0,0.119-0.376,0.289
	c-0.133-0.059-0.588-0.475-0.594-0.475l-1.495-2.529l-3.003-4.021l-0.063-0.078c-0.261-0.248-0.658-0.248-0.911,0.008
	c-0.184,0.189-0.233,0.463-0.132,0.695l0.585,1.775l0.662,1.629l0.748,2.58c0,0.01,0.526,1.838,0.702,2.342l0.046,0.01h-0.039v0.01
	c-0.007,0.014-0.042,0.043-0.154,0.131c-0.179-0.039-0.593-0.211-0.593-0.211l-2.68-5.924c-0.005-0.012-0.012-0.018-0.018-0.027
	v-0.002c0-0.006-0.003-0.006-0.003-0.012c-0.008-0.016-0.026-0.041-0.037-0.066l-0.004-0.002c-0.006-0.012-0.011-0.018-0.02-0.023
	c-0.005-0.008-0.009-0.02-0.017-0.027c-0.003-0.002-0.007-0.006-0.012-0.014c-0.012-0.014-0.025-0.023-0.034-0.033l-0.007-0.004
	c-0.01-0.014-0.026-0.027-0.039-0.037c-0.005,0-0.005-0.006-0.005-0.006c-0.114-0.086-0.256-0.137-0.4-0.133
	c-0.314-0.004-0.58,0.227-0.625,0.541c0,0.016,0,0.029-0.001,0.041v0.008c-0.014,0.068-0.05,0.676-0.093,1.418
	c0.02,0.027-0.213,0.332-0.679,0.574c-0.433,0.266-0.984,0.479-1.045,0.488c-0.379,0.07-1.053,0.268-1.572,0.887
	c-0.023-0.045-0.027-0.096-0.038-0.193c-0.009-0.186,0.113-0.455,0.104-0.461c0-0.018,0.061-0.029,0.061-0.029
	c0.332-0.24,0.945-0.568,1.293-0.924c0.207-0.303,0.241-0.516,0.241-0.719c-0.018-0.748-0.392-1.613-0.541-1.994
	c-0.467-0.859-2.202-1.773-2.34-1.965c-0.261-0.236-2.261-1.914-2.271-1.914c-1.342-1.033-2.159-4.551-2.482-8.703
	c0.02-0.111,0.008-0.223-0.022-0.33c-0.222-2.633-0.305-5.494-0.38-8.189c-0.033-0.365-0.033-0.697-0.033-1.043
	c0-3.016,0.428-5.732,1.056-8.146c0.71-2.74,1.69-5.115,2.652-7.139c1.55-3.26,4.529-5.596,5.409-6.252
	c10.039,3.734,10.91,6.322,10.91,8.016c0,0.523-0.092,1.053-0.122,1.592c0.181,1.346-4.194,2.246-4.194,2.246
	c-0.302,0.041-0.536,0.293-0.553,0.588c-0.026,0.939-1.391,4.02-2.272,5.807c-0.45,0.889-0.76,1.496-0.76,1.51l-1.905,3.871
	c-0.024,0.078-2.623,6.139-2.855,7.652c-0.061,0.08-0.01,0.215-0.017,0.225C91.167,183.859,93.586,183.785,94.232,184.053
	L94.232,184.053z M102.865,131.535c1.725,0.479,6.925,2.035,9.279,3.689l0.133,0.096c0.329,0.231,0.585,0.473,0.753,0.686
	c0.015,0.021,0.027,0.035,0.045,0.052c0.65,0.915,6.409,9.119,6.854,10.361c-3.771-3.914-10.604-6.5-10.631-6.564
	c-0.333-0.132-0.705,0.033-0.83,0.364c-0.132,0.326,0.028,0.69,0.366,0.829l-0.009-0.011c0.045,0,10.472,4.284,11.962,8.821
	c0.185,0.795,0.314,1.367,0.314,1.375c0.02,0.031,0.597,2.256,0.578,2.426v0.016c-0.133,2.387-1.349,9.537-6.587,10.887
	c0.788-1.684,1.408-3.609,1.408-5.844c0.01-3.016-1.144-6.553-4.387-10.637c-0.22-0.275-0.629-0.324-0.898-0.1
	c-0.271,0.225-0.319,0.627-0.095,0.9c3.103,3.92,4.106,7.143,4.106,9.836c0,2.402-0.791,4.441-1.742,6.221
	c-1.35,2.162-4.944,4.99-9.767,5.715c-0.145,0-0.279,0-0.393,0c-1.752,0-3.011-0.521-3.843-1.027
	c-0.808-0.51-1.206-1.023-1.235-1.023c-0.079-0.098-0.189-0.172-0.309-0.207c0.782-1.621,1.714-3.674,1.981-5.045
	c1.231-0.213,4.426-0.848,4.818-3.334c0.021-0.436,0.114-0.994,0.114-1.662c0-2.439-1.648-5.385-11.104-8.957
	c1.051-0.875,3.43-2.371,7.587-2.375c0.037,0,2.629-0.123,4.703-0.123c0.354,0,0.64-0.283,0.64-0.637s-0.285-0.631-0.64-0.631
	c-2.112-0.008-4.727,0.113-4.738,0.113c-6.102,0-8.929,3.127-9.167,3.416c-0.488,0.34-4.094,2.898-6.013,6.881
	c-0.905,1.9-1.835,4.131-2.558,6.68c-2.944-1.914-9.102-8.213-11.855-11.137c-0.882-0.943-1.429-1.541-1.429-1.541
	c-0.24-0.26-0.646-0.27-0.901-0.035c-0.263,0.24-0.272,0.645-0.036,0.912v-0.01c0,0,0.333,0.357,0.893,0.959
	c-0.803,0.41-2.247,1.18-3.653,2.068c-0.335-0.178-1.205-0.686-2.131-1.438c-0.531-0.436-0.596-0.713-0.611-1.797
	c0-0.516,0.041-1.172,0.041-1.992c0-0.449-0.009-0.955-0.032-1.514c-0.009-0.105-0.009-0.131-0.009-0.131
	c-0.245-2.609,5.429-4.182,6.919-4.242c1.708-0.203,8.017-1.773,8.032-1.785l2.822-1.196c0.036,0.006,0.043,0.059,0.08,0.059
	c0.069,0,0.13-0.008,0.193-0.023c0.154-0.055,0.271-0.168,0.351-0.298l2.479-1.058c0.055,0.055,0.118,0.106,0.181,0.162
	c0.567,0.444,1.299,1.372,2.034,1.982c0.612,0.473,1.345,0.524,1.958,0.536c0.4,0,0.749-0.028,1.005-0.039
	c1.074-0.155,2.197-1.085,2.26-1.095c0.961-0.641,0.658-1.704,0.756-2.319c0.034-0.569,0.338-2.279,0.448-2.678
	c0.08-0.327,0.509-1.486,0.649-1.823c0.296-0.293,1.199-0.597,1.651-0.828c0.384-0.265,0.818-0.588,0.828-0.569
	c0.005,0,0.011,0,0.013,0c0.092,0.028,0.306,0.133,0.513,0.234c0.258,0.122,0.496,0.254,0.496,0.254
	c0.195,0.081,0.853,0.262,1.867,0.262c0.679,0,1.508-0.082,2.388-0.365C102.224,132.056,102.63,131.863,102.865,131.535
	L102.865,131.535z M118.282,110.54c2.292,1.624,2.794,1.862,3.131,2.746c1.025,1.652,4.997,1.896,7.905,2.046
	c0.913,0,1.649-0.063,2.219-0.282c0.373-0.212,0.687-0.556,0.97-0.947c0.006,0.005,0.006,0.007,0.009,0.007
	c0.03,0,1.63,0.364,3.767,0.364c0.033,0,0.064,0,0.095,0c0.749,0,1.575-0.06,2.413-0.191l0.247,11.235
	c-0.308-0.02-0.533-0.02-0.613-0.026c-0.074,0.08-3.854-2.392-4.44-2.909c-1.326-0.816-6.744-0.845-9.349-1.304
	c-0.261-0.059-0.523-0.071-0.748-0.071c-2.617,0.013-4.19,2.196-4.68,2.729c-0.495,0.562-1.308,1.181-1.782,1.218
	c-1.325,0.235-2.383,1.809-3.009,2.401c-0.345,0.399-0.921,0.928-1.234,1.212c-0.14,0.131-0.224,0.201-0.224,0.201
	c-1.109,0.536-1.234,1.941-1.259,3.078c0,0.531,0.046,1.044,0.104,1.477c-0.436-0.238-0.91-0.473-1.404-0.694
	c-0.188-1.53-0.268-2.94-0.268-4.274C110.131,116.683,116.753,111.604,118.282,110.54z M121.83,102.522
	c0.275-0.765,0.112-0.358,0.453-2.909c0.307-2.302,2.698-9.403,2.698-9.412c0.56-1.114,2.113-2.17,2.113-2.186
	c1.178-2.231,2.657-2.441,3.58-2.477c0.397,0,0.603,0.074,0.62,0.063l0.409-0.043c0.148-0.061,0.29-0.118,0.43-0.158
	c-0.333,0.145-0.561,0.262-0.703,0.315c-1.325,0.646-2.561,3.106-2.954,5.161c-0.056,0.203-0.056,0.445-0.056,0.64
	c0,1.732,1.076,2.776,1.637,3.506c0.546,0.687,1.14,2.171,1.124,2.968c0,0.048,0,0.092,0,0.144c-0.047,0.058-0.013,0.17-0.021,0.243
	c0.009,1.193,0.342,3.096,1.156,4.91c0.208,0.488,0.402,1.066,0.555,1.675c0.224,0.877,0.292,1.58,0.292,2.247
	c0,0.456-0.03,0.89-0.068,1.363c0.033,0-1.105,5.116-2.067,5.302c-0.204,0.088-0.89,0.191-1.709,0.181
	c-1.322,0-3.021-0.172-4.419-0.458c-0.701-0.143-1.317-0.32-1.746-0.496c-0.416-0.13-0.495-0.274-0.542-0.274
	c-0.007,0-0.012,0-0.012,0.005c-0.586-1.466-1.479-1.816-3.939-3.586c-0.363-0.283-0.433-0.477-0.443-0.844
	c-0.085-1.618,3.038-4.607,3.61-5.88H121.83z M135.761,85.903c0.68,0,1.447,0.071,2.357,0.3c-0.043,0.043,1.243,1.18,1.54,1.416
	c0.098,0.074,0.265,0.187,0.454,0.313c-0.216,0.266-0.415,0.624-0.454,1.128c-0.02,0.597,0.454,1.146,1.122,1.398
	c1.133,0.477,3.02,1.732,3.856,2.3c-0.213,0.338-0.672,0.849-1.688,1.366c-0.316,0.163-0.444,0.545-0.283,0.865
	c0.109,0.218,0.338,0.351,0.581,0.351c0.09,0,0.191-0.022,0.279-0.066v-0.011c0.559-0.275,0.977-0.578,1.318-0.878
	c0.064,0.416,0.135,0.884,0.201,1.356c-0.1,0.012-0.184,0.043-0.271,0.102c-0.963,0.667-2.969,1.128-2.969,1.128
	c-0.343,0.081-0.563,0.42-0.482,0.766c0.08,0.337,0.415,0.56,0.767,0.488l-0.011-0.008c0.038-0.008,1.838-0.381,3.157-1.165
	c0.061,0.42,0.098,0.722,0.098,0.784c0,0.003,0,0.009,0,0.009c0,0.007,0,0.011,0,0.014c0,0.009,0,0.016,0,0.023
	c0.004,0.036,0.01,0.063,0.012,0.093c0.109,0.648,0.623,1.967,0.623,2.896c0,0.319-0.066,0.354-0.047,0.382
	c-0.715,0.578-1.879,1.126-2.797,1.582c-0.006,0-0.008,0-0.014,0c-6.142,0-9.627-1.205-10.125-1.368
	c-0.383-1.219-0.549-2.389-0.549-3.088l-0.011-0.073c0.029-0.224,0.029-0.266,0.029-0.313c-0.019-1.277-0.68-2.775-1.383-3.747
	c-0.684-0.863-1.38-1.56-1.38-2.727c0-0.171,0.009-0.294,0.038-0.394c0.132-1.611,1.857-4.258,2.137-4.215
	C132.594,86.624,133.653,85.914,135.761,85.903L135.761,85.903z M142.388,89.857c-0.386-0.215-0.78-0.427-1.118-0.574
	c-0.356-0.182-0.324-0.224-0.34-0.224c-0.035-0.046,0.103-0.218,0.241-0.38c0.248,0.181,0.492,0.365,0.703,0.552
	C142.093,89.413,142.255,89.638,142.388,89.857z M134.108,104.637c-0.151-0.583-0.338-1.144-0.54-1.654
	c1.548,0.428,4.712,1.101,9.301,1.123c-0.032,3.042,1.864,4.235,1.823,4.296c0.006,0.007,0.006,0.017,0.014,0.018
	c-1.369,3.945-5.313,4.756-8.423,4.777c-1.413,0-2.55-0.171-3.107-0.268c0.834-1.867,1.112-4.152,1.186-4.199
	c0.049-0.54,0.075-1.014,0.075-1.521C134.435,106.446,134.36,105.626,134.108,104.637z M135.291,148.535
	c-0.232,0.332-0.48,0.662-0.506,0.648c-0.215,0.045-0.425,0.115-0.612,0.193c-0.038-0.104-0.105-0.197-0.197-0.275l-0.87-0.695
	c-0.271-0.223-0.68-0.182-0.893,0.092c-0.224,0.271-0.181,0.676,0.091,0.898l0.773,0.623c-0.092,0.064-0.163,0.1-0.206,0.09
	c-1.043,0.346-1.085,0.941-1.751,1.092c-0.304,0.082-0.651,0.125-1.023,0.125c-1.801,0.035-4.234-1.129-4.816-1.857
	c-0.897-1.041-1.771-2.857-1.779-2.857c-0.15-0.32-0.532-0.455-0.853-0.289c-0.313,0.145-0.444,0.531-0.291,0.85v-0.012
	c0.005,0.012,0.125,0.256,0.291,0.572c-0.089,0.023-0.177,0.023-0.255,0.084l-0.644,0.551c-0.16-0.689-0.337-1.408-0.525-2.133
	l8.272-1.881c2.564-1.334,3.241-2.347,3.47-2.891l0.009,0.015c0.262-0.152,1.049-0.327,1.607-0.488
	c0.875-0.321,3.081-1.699,3.83-2.225c0.303-0.224,0.524-0.275,0.827-0.275c0.187,0,0.39,0.028,0.613,0.089
	c0.05-0.009,0.282,0.615,0.355,0.8c-0.421,2.069-1.875,2.891-1.851,2.928l-0.31,0.54c0,0-0.063,3.25-0.144,4.51
	c0,0.182-0.143,0.26-0.719,0.299c-0.389,0-0.749-0.086-0.779-0.086c-0.102-0.023-0.396-0.131-0.692-0.264
	c-0.177-0.086-0.353-0.176-0.432-0.248l-0.024-0.02c-0.057-0.287-0.314-0.496-0.615-0.496c-0.011-0.01-0.646,0.176-0.646,0.631
	v0.008C134.216,148.004,134.796,148.355,135.291,148.535L135.291,148.535z M142.326,131.894c0.025-0.008,2.723,1.692,2.909,2.586
	c0.162,0.445,0.303,1.082,0.303,1.69c-0.037,1.021-0.303,1.821-1.473,2.238c0.059-0.021-0.627,0.064-1.39,0.132
	c-0.465,0.051-0.965,0.1-1.324,0.129c-0.13-0.437-0.427-1.021-1.168-1.316c-0.293-0.082-0.608-0.142-0.942-0.142
	c-0.492,0-1.071,0.133-1.583,0.528c-0.588,0.422-2.989,1.895-3.469,2.036c-0.616,0.304-1.733,0.111-2.391,1.175
	c-0.105,0.214-0.396,0.955-2.744,2.217l-8.4,1.885c-1.654-2.894-6.178-9.198-6.574-9.772c-0.02-0.027-0.029-0.051-0.051-0.075
	c-0.216-0.256-0.473-0.5-0.767-0.738c0-0.028-0.003-0.052-0.008-0.081c0,0-0.276-1.175-0.276-2.34
	c-0.02-1.055,0.26-1.893,0.657-2.009c0.155-0.097,0.262-0.189,0.417-0.329c0.314-0.296,0.901-0.836,1.318-1.298
	c0.507-0.632,1.976-2.09,2.196-1.983c1.124-0.178,1.976-0.988,2.589-1.647c0.545-0.637,1.896-2.315,3.731-2.307
	c0.184,0,0.335,0.013,0.504,0.049c2.596,0.38,8.64,0.774,8.819,1.086c0.905,0.62,4.024,2.949,5.133,3.156
	c0.255,0.017,0.673,0,1.217,0.096c0.918,0.17,1.88,0.555,2.259,1.66c0.222,0.308,0.716,0.699,0.696,1.328
	c0,0.27-0.091,0.648-0.413,1.144c-0.103,0.152-0.132,0.327-0.086,0.496C142.05,131.657,142.169,131.798,142.326,131.894
	L142.326,131.894z M137.958,84.195c0.118,0.009,2.136,0.413,2.582,1.265c0.304,0.224,2.023,1.245,1.994,1.591
	c0.841,1.591,2.119,1.061,1.99,2.181c0,0.088,0,0.189-0.01,0.292l0.291,0.607c0.021,0,0.932,0.71,0.883,1.154l0.438,0.578
	c0,0,0.846,0.225,1.189,1.566c0.033,0.137,0.348,1.479,0.334,1.551c0.035,0.104,0.336,1.794,0.773,2.632
	c0.053,0.104,0.078,0.275,0.078,0.438c0,0.175-0.012,0.328-0.012,0.518c0,0.14,0.004,0.504,0.396,0.742
	c0.023,0,0.389,0.278,0.695,0.575c0.139,0.126,0.277,0.271,0.369,0.396c-0.152,0.05-0.152,0.122-0.201,0.135
	c-0.254,0.249-0.254,0.645,0,0.898c0.01,0.01,0.748,0.82,0.719,1.571c0,0.138-0.014,0.271-0.053,0.387
	c-0.1,0.229-0.125,0.513-0.125,0.755c0.006,0.749,0.229,1.341,0.219,1.755c-0.02,0.371-0.055,0.618-0.646,1.092
	c-0.061,0.063-1.148,1.127-2.059,1.479c-0.531,0.194-1.08,0.246-1.438,0.246c-0.045,0-0.08-0.004-0.117-0.004
	c-0.123-0.239-0.305-0.562-0.451-0.816c-0.545-0.833-1.57-0.993-1.65-3.781c0-0.079,0.004-0.171,0.012-0.279
	c0.924-0.423,1.863-0.907,2.6-1.502c0.447-0.437,0.469-0.921,0.482-1.345c0-1.087-0.531-2.607-0.625-2.945
	c0.008-0.073,0-0.151-0.016-0.221c-0.074-0.865-0.611-4.192-0.615-4.492c-0.006-0.068-0.055-0.11-0.078-0.164
	c0.082-0.188,0.131-0.327,0.137-0.363l-0.244-0.668c-0.014-0.008-0.826-0.584-1.834-1.23c0.027-0.083,0.076-0.156,0.068-0.249
	c-0.068-0.45-0.381-1.41-1.317-2.272c-0.852-0.73-2.044-1.479-2.275-1.647c-0.224-0.195-1.718-1.501-1.718-1.501
	c-1.05-0.327-1.832-0.443-2.508-0.476C136.935,84.399,137.664,84.185,137.958,84.195L137.958,84.195z M151.225,88.618
	c0.053-0.069,1.887-2.862,1.887-7.793c0-2.2-0.369-4.795-1.387-7.742c0-0.05-0.01-0.104-0.02-0.151l-1.904-7.356
	c-0.092-0.345-0.436-0.549-0.775-0.469c-0.336,0.097-0.537,0.45-0.461,0.78l1.342,5.18c-0.465,0.089-0.891,0.313-1.271,0.582
	c-0.039-0.682-0.223-1.44-0.596-2.293c-1.635-3.535-7.084-5.917-9.049-6.747c-0.407-0.182-0.844-0.242-1.245-0.242
	c-0.023,0-0.043,0-0.065,0c-0.009-0.082-0.033-0.162-0.079-0.231l-0.007-0.01c0,0-0.524-0.924-0.524-2.373
	c0.008-1.219,0.348-2.745,1.749-4.396c3.33-3.898,4.182-4.224,5.356-4.385c1.381-0.172,3.822-0.497,3.822-0.497
	c0.291-0.127,2.383-1.621,4.971-1.614c0.924,0.013,1.906,0.187,2.906,0.693c-0.371,0.445-0.686,0.859-0.891,1.223
	c-0.789,1.412-1.783,4.307-1.932,5.196c-0.074,0.567-1.582,4.516-1.623,6.128h0.004c-0.004,0.008-0.004,0.008-0.004,0.008v0.027
	c0.01,1.618,0.842,7.725,1.154,8.788c0.285,0.853,1.436,3.496,1.371,3.679v0.06c-0.098,0.364-0.391,2.149-0.391,2.17
	c-0.045,0.242,0.064,0.487,0.268,0.626c0.201,0.14,0.461,0.14,0.691,0.022c0,0,0.33-0.203,0.695-0.397
	c0.182-0.1,0.375-0.201,0.525-0.26c0.109-0.074,0.115-0.027,0.115-0.068c0.025,0,0.059,0,0.082-0.006h0.057
	c0.408-0.05,1.561,0.103,2.027-1.103c0.131-0.6,0.326-1.999,0.326-3.281c0-0.388-0.02-0.772-0.064-1.116
	c-0.16-1.072-0.4-1.783-0.391-2.236c0-0.146,0.025-0.266,0.078-0.408c0.031-0.085,0.088-0.189,0.152-0.304
	c0.576,1.642,1.984,4.982,4.6,5.782c0.24,0.011,0.275,0.011,0.275,0.011c0.713,0,4.234-0.091,7.563-2.154l-0.473,4.68l-1.334,4.606
	l0.074,0.5c0.113,0.069,1.023,2.026,2.047,2.561l0.047-0.008l-0.006,0.008v0.011c0,0,0.018,0.013,0.076,0.018
	c0.016,0.008,0.051,0.015,0.098,0.008c0.004,0,0.018,0.007,0.027,0.007c0.008-0.007,0.018-0.008,0.023-0.008
	c0.078-0.017,0.18-0.06,0.316-0.14c0.828-0.434,0.627-1.081,0.977-1.763c0.152-0.492,0.277-0.983,0.346-1.265l0.502-0.365
	c0.012-0.002,0.021-0.008,0.027-0.016c-0.006,0.132-0.008,0.272-0.008,0.436c-0.012,2.077,0.834,6.418,6.412,10.629
	c-2.863,1.533-4.627,3.841-4.662,3.873c-0.105,0.129-0.146,0.278-0.137,0.426c-0.574,0.069-1.076,0.151-1.293,0.187
	c-0.781,0.168-3.059,1.092-3.434,1.052l-0.004,0.002c-0.016-0.002-0.031-0.002-0.047-0.002h-0.01
	c-1.229,0.119-2.488,1.396-4.176,1.849c-2.428,1.107-1.289,3.143-3.164,3.3c-1.004,0.207-1.697,0.857-2.092,1.545
	c-0.713,1.355-1.004,2.98-1.148,2.899c-0.473,0.226-0.656,0.712-0.693,1.116l-7.234-3.475c-0.037-0.218-0.07-0.407-0.059-0.582
	c0-0.133,0.016-0.242,0.051-0.319c0.1-0.327,0.131-0.6,0.131-0.822c-0.016-0.785-0.322-1.419-0.602-1.851
	c0.105-0.141,0.182-0.332,0.207-0.575c0-0.044-0.008-0.069-0.008-0.069c-0.211-1.038-1.064-1.628-1.578-1.992
	c0.004-0.093,0.016-0.216,0.016-0.348c0-0.278-0.043-0.644-0.225-1.021c-0.273-0.457-0.639-2.228-0.639-2.228
	c-0.008-0.117-0.063-0.385-0.129-0.672C148.947,93.742,151.123,88.746,151.225,88.618L151.225,88.618z M146.982,73.306
	c-0.244,0.34-0.596,0.596-0.91,0.758c-0.535,0.281-1.648,0.561-2.379,0.719c-0.021-0.262-0.061-0.554-0.137-0.873
	c-0.502-2.704-0.891-2.834-1.527-3.278c-0.771-0.59-1.179-1.146-1.458-1.399c-0.292-0.213-0.656-0.366-1.268-0.397
	c-0.356,0-0.842,0.142-1.124,0.569c-0.266,0.316-0.368,0.729-0.368,1.045c0,0.044,0,0.091,0.007,0.136l-0.681-0.409
	c-1.12-0.69-2.119-0.914-3.114-0.903c-0.315,0-0.628,0.023-0.949,0.052c0.064-1.051,0.318-3.431,0.828-3.737
	c0.71-0.641,2.101-1.673,3.327-1.887c0.187-0.038,0.363-0.063,0.515-0.063c0.273,0,0.504,0.044,0.748,0.144
	c1.896,0.737,7.222,3.308,8.371,6.078c0.377,0.853,0.506,1.529,0.506,2.067C147.357,72.515,147.205,72.941,146.982,73.306
	L146.982,73.306z M142.423,75.55c0.1,0.704-1.377,0.603-3.605,1.949c-0.656,0.433-1.328,0.575-1.975,0.575
	c-0.679,0-1.295-0.186-1.75-0.354c-0.446-0.178-0.729-0.354-0.749-0.354c-0.004,0-0.004,0-0.004,0
	c-0.039-0.044-3.932-3.753-3.999-3.91c-0.226-0.315-0.59-0.547-0.977-0.541c-0.438,0-0.817,0.226-1.069,0.562
	c-0.081,0.088-0.148,0.168-0.175,0.192v-0.016c-0.132,0.027-0.465,0.035-1.032,0.043c0.018,0-0.054,0-0.054,0
	c-0.891-0.008-1.362-0.374-1.609-0.68c0.441-0.276,1.429-0.72,1.429-0.727c0.078-0.043,2.368-1.369,4.538-1.527
	c0.405-0.034,0.767-0.071,1.093-0.104c0.609-0.059,1.105-0.109,1.539-0.109c0.841,0.009,1.479,0.13,2.454,0.721l2.207,1.317
	c0.024,0.014,0.054,0.025,0.083,0.037c0.368,0.64,0.749,1.268,0.749,1.276c0.183,0.303,0.567,0.403,0.88,0.225
	c0.301-0.187,0.394-0.577,0.222-0.881h-0.01c0,0-0.532-0.891-0.95-1.622c-0.243-0.426-0.476-0.851-0.476-0.859
	c-0.062-0.143-0.093-0.241-0.093-0.315c0.009-0.104,0.009-0.156,0.113-0.284c0.027-0.043,0.101-0.05,0.101-0.05
	c0.067-0.021,0.184,0.019,0.263,0.05c0.092,0.037,0.17,0.084,0.189,0.056c0.031,0,0.661,0.782,1.472,1.415
	c0.873,0.798,0.262-0.497,1.082,2.569c0.096,0.384,0.125,0.702,0.125,0.963C142.435,75.25,142.423,75.369,142.423,75.55z
	 M168.984,66.243c0.021,0.014,0.346,0.203,0.869,0.44l-0.088,0.405c-0.074,0.341,0.137,0.676,0.482,0.756
	c0.35,0.082,0.682-0.134,0.762-0.479l0.049-0.227c0.453,0.138,0.949,0.255,1.48,0.315l-1.748,2.781l-0.002,0.021
	c-0.029,0.017-0.063,0.035-0.094,0.059c-3.164,2.382-7.061,2.512-7.695,2.501c-0.102,0-0.166,0.011-0.197,0.011
	c-2.064-0.436-3.744-5.8-3.758-5.8c-0.014-0.038-0.021-0.071-0.037-0.106c0.191-0.379,0.342-0.823,0.355-1.335
	c-0.045-1.014,0.48-3.657,0.65-3.758c0.398-0.601,1.686-2.896,2.092-3.697c0.021-0.298,1.373-0.85,1.873-0.811
	c0.416,0.019,1.822,0.272,2.926,0.272c0.469,0,0.9-0.021,1.33-0.223c0.609-0.364,2.373-1.76,3.406-2.592
	c0.148,0.663,0.338,1.473,0.367,1.794c0.268,1.168,1.807,2.689,2.457,3.339c0.172,0,0.883,2.563,0.813,3.079v0.072l-1.986,3.18
	c-0.033-0.005-0.066-0.009-0.094-0.009c-1.742-0.032-3.543-1.104-3.553-1.084c-0.305-0.18-0.701-0.09-0.889,0.225
	C168.578,65.673,168.678,66.062,168.984,66.243L168.984,66.243z M157.188,49.971c0.1-0.052,0.188-0.138,0.246-0.248
	c0.023-0.032,0.037-0.062,0.045-0.092c1.031-1.162,2.305-2.413,2.66-2.691c0.299-0.318,4.633-1.418,4.797-1.471
	c0.047,0,0.363-0.023,0.842-0.023c1.566-0.008,4.75,0.302,6.582,2.224l0.438,0.189c0.014,0,2.955,0.236,3.549,1.763
	c0.896,1.907,2.51,5.136,2.445,5.858c0,0-0.014,0.038-0.014,0.17c-0.119,0.667-0.648,1.494-0.686,2.381c0,0-0.008,0.141,0.037,0.3
	c-0.01-0.011-0.01,0.065-0.01,0.145c0.01,0.851-0.291,3.339-0.494,3.891c-0.041,0.098-0.08,0.195-0.111,0.313
	c-0.215,0.577-0.404,1.146-0.404,1.786c0,0.089,0,0.232,0.027,0.401c0.08,0.628,0.502,2.149,0.488,2.909
	c0.014,0.195-0.041,0.23-0.02,0.251c-0.256,0.388-1.107,0.7-1.293,1.742c0.045,0.444-0.209,2.665-0.48,2.705
	c-0.807,0.653-1.166,1.498-1.248,2.121c-0.004,0.044-0.016,0.092-0.021,0.147c0.012,0.426,0.176,1.271,0.176,2.219
	c0.008,0.741-0.133,1.438-0.367,1.748c-0.223,0.28-0.438,0.507-0.615,0.674c-0.27,0-0.789,0.02-1.232,0.393l-0.695,0.489
	l-0.244,0.383c0,0-0.16,0.713-0.363,1.406c-0.074,0.232-0.146,0.461-0.219,0.656c-0.33-0.445-0.732-1.076-0.936-1.407l1.271-4.452
	l0.611-5.944l0.035-0.274l4.467-7.165c0.102-0.352,0.102-0.415,0.102-0.476c-0.08-1-0.398-3.129-1.25-4.041
	c-0.463-0.334-2.117-2.4-2.023-2.542c-0.104-0.75-0.625-2.894-0.625-2.903c-0.057-0.225-0.219-0.39-0.42-0.463
	c-0.203-0.069-0.438-0.027-0.602,0.105c0,0.01-3.408,2.765-4.016,3.098c-0.01,0.019-0.328,0.081-0.713,0.081
	c-0.951,0-2.238-0.239-2.801-0.27c0.061,0.009,0,0-0.105,0c-0.896,0.048-2.369,0.328-3.037,1.516
	c-0.346,0.688-1.689,3.093-1.996,3.514c-0.545,0.882-0.83,3.141-0.883,4.489c0,0.402-0.188,0.784-0.482,1.229
	c-0.268,0.394-0.609,0.796-0.822,1.342c-0.096,0.279-0.156,0.573-0.156,0.866c0.01,0.8,0.279,1.474,0.402,2.399
	c0.035,0.252,0.045,0.596,0.045,0.953c0,1.15-0.188,2.527-0.283,2.985c-0.014,0-0.055,0.01-0.18,0.048
	c-0.182,0.064-0.459,0.08-0.609,0.08c-0.006,0.018-0.006,0-0.02-0.008c-0.016-0.008-0.057-0.023-0.162,0.008
	c-0.246,0.036-0.52,0.135-0.775,0.254c0.068-0.399,0.143-0.771,0.178-0.928c0.01-0.143,0.01-0.202,0.01-0.202
	c-0.045-0.982-1.209-3.262-1.416-4.051c-0.238-0.658-1.094-6.907-1.111-8.347c0.004-0.032,0.004-0.063,0.008-0.097
	c-0.008-1.112,1.434-5.072,1.6-5.933c0.072-0.547,1.123-3.657,1.785-4.759C156.273,51.085,156.695,50.534,157.188,49.971
	L157.188,49.971z M192.127,75.513c0.025,0,1.924,3.46,1.951,4.907c-1.379-0.92-2.961-1.803-4.68-2.505
	c-0.34-0.136-0.703,0.028-0.834,0.355c-0.129,0.332,0.021,0.695,0.354,0.827c1.971,0.8,3.77,1.877,5.277,2.955
	c2.121,1.511,3.25,2.899,3.768,3.624c-8.213,1.36-15.107,4.631-16.947,5.525c-5.771-4.152-6.422-8.192-6.441-9.995
	c0-0.508,0.063-0.81,0.092-0.924c0.227-0.224,0.475-0.494,0.719-0.814c0.535-0.745,0.615-1.66,0.629-2.509
	c0-0.969-0.16-1.965-0.176-2.188l0.016-0.022c-0.016-0.149,0.25-0.899,0.779-1.28c1.082-1.067,0.848-3.178,0.951-3.621
	c-0.082-0.057,0.494-0.525,1.047-1.063c0.24-0.372,0.268-0.677,0.268-1.011c0-1.051-0.457-2.633-0.496-3.089
	c-0.018-0.08-0.018-0.133-0.018-0.222c0-0.226,0.051-0.476,0.129-0.758C179.65,64.143,187.209,67.323,192.127,75.513z
	 M160.248,109.118c0-0.067-0.008-0.126-0.031-0.188c-0.055-0.256-0.086-0.48-0.086-0.65c0.008-0.18,0.021-0.18,0.008-0.188
	c1.166-0.861,0.965-2.362,1.652-3.373c0.305-0.496,0.648-0.808,1.256-0.941c2.949-0.801,2.148-3.361,3.271-3.317
	c1.715-0.537,3.428-1.739,3.76-1.812c0.012,0,0.033,0,0.051,0c0,0.005,0,0.005,0,0.005h0.01v-0.013
	c0.043,0.013,0.051,0.013,0.051,0.013c1.008-0.044,3.145-0.996,3.658-1.076c0.273-0.044,1.039-0.17,1.822-0.24
	c0.494-0.063,0.979-0.104,1.357-0.104c0.162-0.009,0.283,0,0.348,0.011c0.1,0.006,0.139,0.022,0.162,0.006
	c0.422,0.284,1.568,0.802,2.719,1.26c0.846,0.322,1.551,0.59,2.102,0.637c0.563,0.013,3.553,1.217,4.375,1.308
	c0.273,0.007,0.789,0.043,1.203,0.14c0.162,0.035,0.307,0.078,0.396,0.114c0,0.011,0,0.02,0,0.031
	c-0.094,0.17-0.383,0.534-0.422,1.153c-0.047,0.251,0.197,0.71,0.49,0.828c0.186,0.093,0.539,0.265,0.811,0.459
	c0.133,0.094,0.244,0.19,0.305,0.243c0,0.014,0.01,0.028,0.01,0.047c-0.041-0.057-0.563,0.639-0.607,1.438
	c0,0.043,0,0.225,0.061,0.391c0.211,0.704,1.381,2.296,1.5,2.714c0.084,0.222,0.145,0.525,0.145,0.767
	c0.008,0.248-0.072,0.375-0.082,0.375c-0.252,0.295-0.742,0.404-0.863,1.235c-0.01,0.222,0.135,0.516,0.299,0.668
	c-0.037-0.029-0.045,0.023-0.045,0.023c0.021,0.143-0.133,0.475-0.205,0.515c-0.451,0.436-0.865,1.286-1.141,1.567
	c-0.416,0.468-1.43,2.083-1.715,2.254c-0.021,0.28-1.611-0.195-2.352,1.154c0.014,0,0,0.01-0.162,0.109
	c-0.402,0.299-1.471,0.6-1.766,0.639c-0.037-0.01-0.068-0.01-0.109-0.01c-0.01,0-0.031,0.005-0.051,0.01
	c-0.037-0.005-0.08,0-0.137,0.022c-0.848,0.186-2.021,0.905-2.594,0.877v0.073c-0.188-0.442-0.285-1.174-0.285-1.793
	c0-0.464,0.061-0.912,0.104-0.991c0.072-0.364,0.758-0.831,1.135-1.604c0.111-0.313,0.148-0.625,0.148-0.926
	c-0.021-0.429-0.045-0.784-0.344-1.158c-0.248-0.24-0.693-0.763-0.67-1.041c0-0.132,0.016-0.213,0.205-0.407
	c1.186-1.274,3.094-4.867,3.549-6.026c0.15-0.416,0.201-0.835,0.201-1.199c-0.023-0.798-0.201-1.354-0.498-1.752
	c-0.521-0.505-2.854-1.75-3.385-2.024c-0.646-0.264-3.473-0.86-4.539-0.892h-0.078c0,0-0.004,0-0.016,0
	c-0.016,0-0.039,0.005-0.078,0.01c-0.021,0-0.047,0-0.066,0c-0.266,0-0.688-0.028-1.176-0.028c-0.863,0.019-1.822,0.008-2.6,0.486
	c-0.711,0.444-2.678,1.152-3.293,1.559c-0.512,0.373-2.063,1.833-2.082,1.844l-2.246,1.927c-0.094,0.085-2.631,2.563-3.143,7.814
	c-0.094-0.156-0.176-0.333-0.158-0.51c0-0.103,0.008-0.143,0.008-0.156c0.09-0.296,0.1-0.51,0.1-0.687
	C160.484,110.18,160.357,109.599,160.248,109.118L160.248,109.118z M182.133,130.204c-1.189,1.853-2.459,3.752-3.107,4.488
	c-0.682,0.766-2.092,1.467-3.246,1.902c-1.01,0.385-1.82,0.577-1.834,0.577l-12.385,1.486l-0.791,0.102
	c-0.383-1.307-1.387-4.816-1.877-7.014c-0.047-0.198-0.072-0.383-0.072-0.602c-0.088-2.316,2.76-6.06,3.141-6.239
	c0.682-0.542,1.123-1.55,1.359-2.178c1.109,0.991,3.299,2.661,3.322,2.692c0.299,0.123,1.582,0.368,2.006,0.396
	c0.037-0.013,0.883,0.291,1.145,0.93c0.414,0.661,1.039,4.085,3.547,4.296c0.23,0,0.406-0.042,0.584-0.068l0.313-0.163l1.145-1.063
	c0.619,0.25,1.828,0.733,2.068,0.852c0.156,0.078,0.852,0.417,1.887,0.401C180.115,131.004,181.072,130.806,182.133,130.204z
	 M188.604,116.302c-0.346-0.061-0.672,0.188-0.725,0.53h-0.012c0,0.006-0.527,3.256-1.305,5.762
	c-0.352,0.813-0.566,1.344-0.566,1.351c-0.363,0.657-0.773,1.304-1.158,1.871c-2.371,3.352-4.336,3.909-5.502,3.921
	c-0.551-0.006-0.939-0.129-1.158-0.215l0.732-0.436c0.305-0.179,0.398-0.575,0.213-0.882c-0.182-0.305-0.566-0.391-0.875-0.214
	l-1.279,0.776c-0.078,0.038-0.139,0.103-0.188,0.164c-0.652-0.267-1.303-0.521-1.318-0.521l-0.666,0.122l-1.293,1.219
	c-0.07,0.013-0.131,0.019-0.164,0.019c-0.918,0.207-2.047-2.576-2.396-3.566c-0.613-1.174-1.604-1.594-2.225-1.653
	c-0.174-0.011-1.406-0.238-1.559-0.261c-0.016-0.085-3.139-2.54-3.404-2.901c-1.434-1.73-1.754-4.142-1.77-4.142
	c-0.195-1.193-0.264-2.27-0.264-3.248c0-0.297,0.01-0.589,0.029-0.874c0.25-5.524,2.824-7.864,2.801-7.9l2.236-1.93
	c0.018-0.016,1.646-1.528,1.967-1.748c0.213-0.182,2.336-0.991,3.24-1.521c0.221-0.192,1.127-0.312,1.912-0.296
	c0.428,0,0.838,0.034,1.176,0.034c0.057,0,0.121,0,0.176,0c0.043,0,0.084-0.004,0.115-0.01c0.721,0.006,3.84,0.679,3.953,0.766
	c0.264,0.093,2.959,1.676,2.967,1.719c0,0,0.188,0.432,0.172,0.906c0,0.244-0.035,0.509-0.125,0.766
	c-0.313,0.881-2.363,4.663-3.248,5.55c-0.396,0.364-0.59,0.88-0.578,1.317c0.033,1.095,0.91,1.751,0.982,1.872
	c0.012,0,0.051,0.12,0.033,0.327c0,0.185-0.033,0.372-0.064,0.464c-0.012,0.168-0.809,0.734-1.152,1.637
	c-0.143,0.388-0.164,0.86-0.174,1.42c0.01,0.758,0.1,1.6,0.395,2.311c0.217,0.526,0.793,0.708,1.166,0.687
	c1.01-0.024,2.406-0.796,2.719-0.905c0.105,0.011,0.209,0,0.307-0.036c0.873-0.136,2.369-0.414,3-1.575l0.014,0.018
	c0.281-0.176,1.145-0.083,1.896-0.56c0.699-0.558,1.625-2.167,1.893-2.409c0.424-0.508,0.908-1.369,1.088-1.498
	c0.381-0.415,0.568-0.895,0.594-1.449c0-0.222-0.041-0.454-0.158-0.681c0.086-0.081,0.211-0.18,0.348-0.306
	c0.418-0.402,0.496-0.889,0.496-1.315c0-0.437-0.094-0.849-0.213-1.202c-0.283-0.724-1.471-2.444-1.49-2.669h-0.006
	c-0.041-0.115,0.391-0.824,0.586-1.386l-0.371-0.212h0.389l-0.006-0.072l-0.012,0.003c-0.262-0.998-1.055-1.257-1.549-1.512
	c0.072-0.181,0.221-0.509,0.34-0.867c0.025-0.258,0.045-0.305,0.045-0.305c-0.008-0.029-0.031-0.036-0.041-0.062
	c0.182-0.011,0.313-0.03,0.541-0.03c2.324,0.079,6.27,0.651,6.59,6.846c0.018,0.539,0.031,1.038,0.031,1.377
	c0,0.355,0,0.574,0,0.598c-0.023,0-1.654,5.579-5.502,6.922c-0.547,0.213-1.795,0.986-2.063,1.123
	c-0.045,0.074-0.086,0.146-0.133,0.226c0.055-0.305,0.094-0.517,0.094-0.522C189.18,116.689,188.947,116.355,188.604,116.302
	L188.604,116.302z M204.891,86.349c1.102,0,2.205,0.055,3.301,0.163c-6.914,3.21-10.688,12.722-11.674,15.809
	c-1.762-2.592-4.664-3.188-6.408-3.134c-0.961,0-1.611,0.137-1.643,0.146c-0.031,0.005-0.043,0.036-0.08,0.054
	c-0.625-0.168-1.281-0.092-1.574-0.21c-0.275,0.017-3.354-1.217-4.377-1.31c-0.141,0.013-0.941-0.242-1.709-0.548
	c-1.07-0.413-2.309-0.989-2.486-1.123c-0.443-0.25-0.775-0.232-1.213-0.241c-0.166,0-0.342,0.003-0.52,0.016
	c0.748-0.82,2.398-2.419,4.57-3.379C181.77,92.277,193.131,86.349,204.891,86.349z M212.055,86.739c0.801,0,1.514,0.139,2.018,0.271
	c-2.354,2.272-8.934,9.219-8.984,16.634c-0.01,5.597,3.965,11.147,15.779,14.578c-1.404,0.716-2.832,1.021-4.275,1.021
	c-0.779,0-1.559-0.094-2.33-0.254c-8.279-1.658-16.264-12.059-16.328-12.107c-0.08-1.21-0.322-2.215-0.656-3.087
	c0.131-0.109,0.232-0.266,0.24-0.454h-0.008c-0.027-0.125,4.131-12.918,11.566-15.822C210.102,86.917,211.119,86.739,212.055,86.739
	z M215.346,87.534c0.043-0.034,0.074-0.077,0.102-0.118c0.375,0.061,0.773,0.061,1.217,0.07c0.434,0,0.889-0.024,1.371-0.024
	c2.244,0,5.205,0.231,8.494,2.748l0.578,0.099l4.355-1.352c0.5-0.073,1.041-0.125,1.561-0.125c5.824,0.01,8.742,5.384,8.75,8.755
	c0.084,3.473-5.234,8.565-5.234,8.592l-5.525,4.503c-1.371,2.443-6.535,5.294-8.648,6.631c-12.504-3.416-15.99-8.615-16.004-13.668
	C206.311,96.562,213.563,89.159,215.346,87.534L215.346,87.534z M245.059,200.754c-2.021-0.291-4.787-7.107-4.684-13.576
	c0-1.729,0.182-3.432,0.572-4.982c1.512-6.27,5.9-21.451,5.9-39.524c0-3.879-0.197-7.892-0.67-11.974
	c-1.395-11.993-2.994-20.783-5.568-27.189c-0.006-0.009-0.01-0.021-0.016-0.032c1.262-1.732,2.418-3.859,2.455-5.89
	c0-3.962-3.313-9.991-10.025-10.029c-0.598,0-1.217,0.062-1.852,0.161L227.045,89c-3.465-2.57-6.729-2.819-9.01-2.808
	c-0.521,0-0.988,0.017-1.371,0.017c-0.652,0.007-1.137-0.048-1.338-0.133c-0.053-0.019-1.441-0.605-3.271-0.605
	c-0.447,0-0.92,0.033-1.408,0.12c-0.025-0.007-0.049-0.012-0.078-0.017c-1.898-0.365-3.801-0.497-5.678-0.497
	c-1.867,0-3.725,0.142-5.537,0.39c-0.295-0.495-1.441-2.232-4.004-4.149v-0.012c0-0.074,0-0.316,0-0.839
	c-0.068-2.141-2.117-5.538-2.117-5.601c-5.252-8.7-13.287-11.965-14.322-12.366c0.271-1.048,0.479-3.049,0.492-4.024
	c0-0.15,0-0.273-0.023-0.406l-0.303-0.038h0.291c-0.039-0.234,0.459-1.25,0.676-2.272c0.01-0.119,0.021-0.153,0.021-0.278
	c-0.063-1.521-1.701-4.43-2.563-6.388c-1.049-2.079-3.563-2.4-4.387-2.479c-2.324-2.199-5.686-2.434-7.338-2.439
	c-0.639,0-1.039,0.037-1.061,0.051c-0.148,0.049-4.322,0.962-5.375,1.71c-0.475,0.381-1.586,1.493-2.623,2.635
	c-1.275-0.726-2.57-0.984-3.752-0.984c-2.93,0.011-5.158,1.556-5.412,1.726c0.02-0.071-2.232,0.23-3.543,0.395
	c-1.588,0.2-2.885,0.926-6.158,4.831c-1.603,1.862-2.063,3.745-2.06,5.216c0,1.422,0.424,2.457,0.605,2.84
	c-1.422,0.446-2.639,1.428-3.347,2.042c-1.152,1.18-1.226,3.853-1.255,4.813c-0.164,0.013-0.335,0.031-0.504,0.051
	c-2.579,0.207-4.966,1.641-5.009,1.657c0.021,0.176-1.823,0.318-2.277,1.807c0.011,0.223,0.072,0.314,0.108,0.393
	c0.236,0.531,1.146,1.624,2.918,1.624h0.071c1.35,0.108,1.965-0.336,2.15-0.673c0.029-0.031,0.046-0.055,0.062-0.074
	c0.595,0.723,4.203,4.092,4.23,4.139c0.153,0.092,1.48,0.974,3.295,0.98c0.837,0.011,1.782-0.2,2.683-0.786
	c1.458-1.107,3.306-0.803,4.003-2.436c0.645-0.13,2.189-0.458,3.131-0.942c0.4-0.201,0.867-0.519,1.266-1.017
	c0.016-0.019,0.037-0.035,0.059-0.055v-0.008c0.09-0.152,1.816-1.969,2.105-1.796v0.072c1.311,3.291,1.742,6.128,1.742,8.441
	c0,4.605-1.699,7.064-1.668,7.09c-0.219,0.339-1.256,2.731-1.949,4.313c-0.398-0.78-0.961-1.208-1.326-1.415
	c-0.213-0.767-0.75-1.265-1.092-1.529c0-0.02,0-0.035,0-0.052c-0.125-2.221-2.447-2.395-2.025-2.505
	c-0.51-1.428-2.381-2.097-2.414-2.18c-0.809-1.347-3.078-1.551-3.125-1.597c-0.023-0.012-0.143-0.023-0.265-0.023
	c-1.081,0.027-3.184,0.863-3.83,1.121c-0.192-0.041-0.496-0.083-0.884-0.083c-0.501,0-1.17,0.066-1.892,0.355
	c-0.159-0.03-0.396-0.055-0.688-0.055c-1.155-0.021-3.314,0.433-4.499,2.919c-0.037-0.057-1.569,1.007-2.363,2.521
	c-0.049,0.111-2.428,7.123-2.792,9.749c-0.367,2.721-0.16,1.99-0.393,2.615c-0.115,0.649-3.618,3.743-3.69,6.333
	c-0.012,0.423,0.108,0.862,0.36,1.252c-2.111,1.513-8.446,7.109-8.446,18.9c0,1.162,0.063,2.395,0.2,3.697
	c-2.685-1.077-5.509-1.849-6.243-2.048c-0.464-0.604-1.16-0.791-1.496-0.968c-0.512-0.188-2.7-1.202-2.986-1.585
	c-0.821-0.876-2.332-1.272-3.28-1.367l0.022-0.021c-0.681-0.567-2.362-3.922-3.163-6.615c-0.951-3.039-1.668-6.785-1.668-10.664
	c0-0.114,0.008-0.236,0.02-0.386l-0.313-0.124h0.301c-0.008-4.367-2.835-9.767-3.654-11.726c-0.056-0.129-0.104-0.247-0.145-0.356
	l3.932-1.976c-0.055,0.361-0.093,0.779-0.093,1.214c0.011,0.639,0.069,1.341,0.455,1.957c-0.04-0.071,2.049,5.802,8.5,6.33
	c0.615,0.049,6.107,0.253,6.12,0.253c0.081,0.002,0.158-0.006,0.234-0.034c1.285,0.727,2.908,1.615,4.778,1.624
	c1.019,0,2.107-0.286,3.158-0.992c0.033,0.008,1.682-0.874,1.682-3.271c0-0.249-0.019-0.525-0.057-0.818
	c0.475-0.362,1.268-1.095,1.325-2.265c0-0.352-0.103-0.766-0.335-1.149l-0.466-0.755l2.146-0.354
	c0.112-0.139,1.736-0.313,1.977-1.831c0-0.102,0-0.225-0.062-0.377l-0.483-0.424c-0.019,0-2.816-0.517-3.343-0.555
	c-0.286-0.021-3.498-0.508-3.498-0.508l-1.332,0.145l-1.395-0.371c0-0.008-0.004-0.021-0.004-0.03
	c-0.542-1.587-3.325-3.597-4.217-4.242c0.456-0.228,0.79-0.464,1.053-0.93c0.211-0.871,0.211-2.392,0.211-3.14
	c0-0.235,0.014-0.356,0.014-0.356c0-0.092-0.015-0.185-0.05-0.262c1.135-1.714,1.313-3.682,1.325-4.833l2.815,1.53
	c0.075,0.009,2.157,1.217,3.51,1.253h0.098c1.346-0.087,1.69-1.264,1.637-1.619c-0.006-0.042,0.472-0.495,0.461-0.535
	c0.55-0.227,0.905-0.653,1.107-0.923c0.392-0.021,1.076-0.076,1.607-0.375c0.264-0.183,0.536-0.44,0.749-0.666
	c0.248,0.167,0.584,0.32,1.014,0.351c0.739,0,1.286-0.679,1.45-1.579c0.39-2.01,2.319-6.501,2.683-7.498
	c0.195-0.52,0.38-0.818,0.495-0.979c0.454,0.163,0.924,0.272,1.408,0.284c0.117,0,0.252-0.012,0.396-0.024
	c2.074-0.188,2.488-1.729,2.462-2.095c0.011-0.118,0.427-1.508,0.427-2.957c0.017-1.546-0.497-3.518-2.505-4.254
	c-0.468-0.91-2.151-3.864-5.32-3.942c-0.204,0-0.417,0.015-0.629,0.047c-0.91-0.632-4.354-2.847-8.213-2.862
	c-0.493,0-0.975,0.042-1.453,0.132c0.056-0.029-2.027-0.394-4.307-0.394c-2.523,0.018-5.714,0.364-6.295,2.898
	c-1.445,0.257-5.82,0.929-6.414,3.411c-0.264,0.054-0.575,0.137-0.786,0.23c-0.698,0.42-2.003,1.459-2.093,3.072
	c-2.432-1-4.692-1.193-5.798-1.225c-0.104-0.008-0.223-0.008-0.306-0.008c-0.251,0-0.415,0.008-0.444,0.016
	c-0.006-0.022-3.371-0.383-6.866-0.383c-1.894,0-3.822,0.098-5.349,0.446c-4.18,0.941-9.479,1.933-11.753,3.302
	c-2.256,1.458-4.29,5.459-5.848,6.309c-1.716,1.022-4.636,2.142-5.496,5.562c-0.104,0.443-0.213,0.947-0.314,1.492
	c-0.728,0.191-5.337,1.785-9.705,9.688c-0.014,0.016-2.928,3.479-3.859,4.306c-0.623,0.56-0.707,1.361-0.722,2.19
	c0.035,1.611,0.48,3.417,1.361,4.295c0.26,0.209,0.89,0.994,1.734,1.852c-0.375,0.508-0.802,1.373-0.802,2.642
	c0,1.289,0.438,2.979,1.758,5.141c-1.365,0.943-4.368,3.994-5.423,12.742c0,0.06-0.56,10.94-1.93,15.104
	c-2.553,5.479-8.345,11.377-8.345,11.389c-0.051,0.068-0.789,0.84-0.801,2.063c-0.006,0.73,0.313,1.611,1.176,2.367l4.287,2.963
	c0.111,0.084,0.25,0.119,0.382,0.111c0.028,0.268,0.106,0.434,0.125,0.477c0.563,1.063,1.966,1.154,3.611,1.76
	c1.506,0.426,2.858,0.76,3.47,0.83c0.275,0.227,0.642,0.373,1.042,0.375c2.57,0.145,3.717,0,4.646,1.09
	c0.53,0.586,1.124,1.191,1.821,1.555c0.134,0.043,0.868,0.213,1.953,0.307c-1.747,1.082-3.53,2.754-3.846,4.758
	c-0.109,1.039-0.563,2.959-0.563,4.883c0.007,2.686,1.13,5.727,5.376,5.738l0.06-0.012l0.434-0.07c0.02-0.01,2.345-1.295,3.72-2.457
	c0.156,1.129,0.638,3.934,1.947,5.57c0.058,0.082,0.118,0.154,0.189,0.23c-0.071,0.359-0.284,1.5-0.284,3.037
	c0,2.42,0.522,5.873,3.082,8.568c-0.372,0.402-1.05,1.268-1.145,2.461c-0.073,1.334-0.097,3.709-1.084,5.854
	c-1.024,2.26-3.041,6.992-3.083,8.799c0,0.008-0.016,0.178,0.065,0.395c0.121,0.707,0.87,2.141,1.609,3.58
	c0.366,0.711,0.73,1.381,1.006,1.887c0.139,0.26,0.242,0.473,0.321,0.625c0.043,0.072,0.07,0.133,0.081,0.164l0.019-0.008
	c0.33,0.83,0.759,1.166,1.358,1.551c0.336,0.088,1.182,0.195,1.708,0.209v-0.059l0.195-0.135v0.18l0.047,0.014l-0.008-0.006
	c0.187,0.006,0.648,0.064,1.014,0.064c0.11,0,0.215,0,0.352-0.02c0.358-0.189,1.344-0.053,1.674-1.262
	c0.01-0.242,0-0.469,0.021-0.588l-0.027-0.006c0.649-0.494,1.429-1.348,1.63-2.416c0.022-0.236-0.163-0.711-0.63-0.801
	c-0.445-0.141-1.359-0.459-1.819-0.621c-0.713-0.213-0.981-0.227-1.007-0.408c-0.231-0.508-0.354-0.766-0.346-0.898
	c0-0.088,0.01-0.119,0.035-0.15c0.131-0.436,0.776-1.012,1.214-1.291c0.312-0.295,5.609-3.832,6.358-3.963c0.038,0,0.062,0,0.062,0
	v-0.029c1.124,0.262,2.95,0.758,3.502,1.33c0.977,0.914,8.362,7.137,10.225,8.025c1.573,0.676,8.095,4.701,11.651,5.09
	c3.186,0.34,8.952,1.566,11.359,2.234c1.272,0.355,3.275,0.793,5.315,0.793c1.98-0.012,4.071-0.422,5.436-1.951
	c2.178-2.547,3.415-2.775,3.658-4.857c0.068-0.893,0.359-2.836,0.359-4.805c0-1.539-0.166-3.105-0.856-4.305
	c-1.41-2.377-2.735-4.039-2.744-4.059c-0.052-0.066-0.115-0.111-0.183-0.152c0.006-0.031,0.015-0.055,0.021-0.084
	c0.097-0.555,0.141-1.053,0.141-1.516c0.021-2.596-1.387-4.377-1.501-4.785c-0.132-0.33-0.818-2.436-1.632-4.953
	c-0.447-1.402-0.94-2.955-1.386-4.418c0.386-0.357,1.82-1.617,3.404-3.227c0.578,0.533,10.193,10.92,14.33,11.84
	c0.095,0.053,0.203,0.082,0.317,0.082c0.028-0.01,4.375-0.143,8.478-1.504c3.149-1.094,5.348-3.021,7.499-2.984
	c0.654,0,1.32,0.143,2.092,0.557c0.045,0.086,0.086,0.172,0.135,0.256c0.24,0.43,0.574,0.838,0.988,1.193l0.484,8.066
	c-0.012,0.053-0.016,0.109-0.016,0.17c0,0.373,0.025,1.885,1.287,2.33l-1.137,8.119l-19.994,4.68
	c-0.139,0.006-0.271,0.057-0.381,0.156c-0.035,0.021-0.06,0.053-0.085,0.082c-0.117,0.141-0.169,0.322-0.143,0.494l-0.011,5.014
	l0.437,0.609l19.725,6.654l0.383,0.008l36.09-10.613c0.277-0.08,0.461-0.324,0.461-0.611v-5.105c0-0.006,0-0.012,0-0.02
	c0-0.293-0.229-0.545-0.508-0.598l-20.725-4.262l-3.227,0.74l-2.244-14.957c0.029-0.031,0.063-0.064,0.092-0.094
	c0.865-1.188,1.844-3.033,1.844-5.41c0-0.682-0.084-1.391-0.244-2.117c-0.695-2.924-0.936-4.561-0.936-5.633
	c0-0.869,0.133-1.367,0.35-2.027c0.111-0.596,6.879-8.77,11.385-16.988c0.004-0.008,0.004-0.01,0.01-0.014
	c-0.043,2.889-0.094,7.537-0.094,9.682c0,0.553-0.012,0.889,0.023,1.148c0.008,0.318,0.061,1.051,0.061,1.934
	c0.014,1.516-0.203,3.492-0.775,4.248c-1.148,1.672-2.352,4.277-2.375,5.854c0,0.037-0.021,0.199,0.035,0.4
	c0.043,0.363,0.076,1.059,0.076,1.707c0,0.781-0.076,1.57-0.141,1.744c-0.227,0.615-1.436,4.354-1.436,4.365
	c-0.029,0.109-0.076,0.354-0.076,0.717c-0.041,0.951,0.385,3.283,2.99,3.611c1.264,0.16,2.715,0.248,4.107,0.248
	c1.859-0.01,3.551-0.148,4.646-0.676c1.449-0.783,2.689-2.023,2.752-3.455c0-0.23-0.041-0.467-0.135-0.68
	c-0.59-1.303-1.773-1.961-2.396-2.836c-0.609-0.75-1.354-2.236-1.316-3.1c0-0.15,0.012-0.25,0.016-0.281
	c0.021-0.068,0.453-1.434,0.494-2.34c0.01-0.039,0.008-0.063,0-0.076c0.008-0.01,0.008-0.021,0.008-0.025h-0.033l0.033-0.082
	c-0.016-0.232-0.045-0.682-0.045-1.217c-0.02-1.031,0.154-2.449,0.426-2.742c0.697-0.992,5.609-8.48,5.609-8.49
	c0.064-0.1,2.477-3.738,3.271-13.996c0.006-0.021,0.006-0.041,0.006-0.057c2.646-0.23,4.561-0.281,5.504-0.289l-0.139,0.576
	l-2.414,5.17c0-0.018-4.059,7.836-4.795,9.75c-0.449,1.162-2.17,4.5-2.17,9.244c0,2.314,0.408,4.979,1.559,7.926l1.336,4.902
	c2.201,7.131,3.387,8.307,6.234,8.717c0.061,0.008,0.121,0.008,0.178,0c-0.264,0.984-0.541,1.865-0.707,2.207
	c-0.271,0.584-0.855,1.672-1.195,2.906c-0.141,0.555-0.256,1.143-0.256,1.752c0,0.131-0.012,0.313,0.035,0.537
	c0.197,1.699,0.178,3.752,2.186,4.129c0.262,0.043,0.535,0.053,0.803,0.053c1.094,0,2.238-0.209,2.684-0.305
	c0.49,0.18,1.936,0.674,2.902,0.738c0.449,0.035,0.971,0.08,1.504,0.08c0.568,0,1.164-0.061,1.711-0.373
	c0.629-0.414,2.006-0.889,2.775-1.449c0.645-0.545,2.443-1.889,2.602-3.59c0.004-0.037,0.004-0.076,0.004-0.113
	c-0.137-1.734-3.01-5.525-3.031-5.635c0.055,0.102,0.025,0.002-0.031-0.236c2.637,0.525,10.52,0.797,18.68,1.211
	c2.643,0.117,2.932,0.092,5.289,0.172c0.396,0.008,0.842,0.018,1.314,0.018c6.172,0,17.48-1.238,17.494-1.238
	c0.309-0.037,0.547-0.277,0.578-0.586C245.564,201.109,245.361,200.832,245.059,200.754"/>
<path id="path296" fill="#231F20" d="M133.927,92.86c0.198,0,0.399-0.096,0.525-0.268c0-0.029,0.566-0.7,1.152-1.271
	c0.018,0.031,0.029,0.06,0.052,0.08l0.244,0.367c0.2,0.283,0.599,0.363,0.89,0.166c0.286-0.195,0.365-0.589,0.17-0.881l-0.249-0.364
	c-0.031-0.053-0.069-0.097-0.116-0.133c0.078-0.029,0.145-0.037,0.195-0.021l0.064,0.021c0.27,0.221,0.676,0.177,0.899-0.088
	c0.214-0.277,0.183-0.677-0.091-0.896c-0.254-0.215-0.595-0.317-0.873-0.305c-1.823,0.162-3.262,2.553-3.369,2.571
	c-0.212,0.286-0.156,0.68,0.14,0.895C133.671,92.816,133.802,92.86,133.927,92.86"/>
<path id="path298" fill="#231F20" d="M134.349,143.738c-0.27,0.232-0.306,0.637-0.072,0.898c0.13,0.146,0.306,0.223,0.487,0.223
	c0.141,0,0.286-0.049,0.409-0.154l0.533-0.445c0.518,0.189,0.91,0.275,0.936,0.305c0.33,0.092,0.687-0.121,0.774-0.453
	c0.097-0.338-0.109-0.691-0.444-0.783h-0.012c-0.025,0.021-2.145-0.696-2.317-1.184c-0.174-0.302-0.563-0.406-0.869-0.22
	c-0.307,0.168-0.407,0.557-0.226,0.87c0.232,0.348,0.554,0.625,0.904,0.852L134.349,143.738"/>
<path id="path300" fill="#231F20" d="M117.25,68.718c-0.199,0.281-0.117,0.686,0.175,0.878l1.022,0.69l-0.301,0.456
	c-0.207,0.296-0.125,0.697,0.168,0.893c0.292,0.202,0.689,0.117,0.882-0.176l0.313-0.468l1.157,0.775
	c0.104,0.067,0.224,0.104,0.345,0.104c0.208,0,0.413-0.104,0.536-0.289c0.192-0.283,0.113-0.688-0.18-0.88l-3.235-2.161
	C117.852,68.34,117.444,68.424,117.25,68.718"/>
<path id="path302" fill="#231F20" d="M165.465,68.542c-0.367-0.02-0.594-0.07-0.701-0.109c-0.025-0.042-0.059-0.084-0.1-0.122
	c-0.248-0.251-0.643-0.251-0.898,0c-0.016,0.062-0.141,0.044-0.191,0.457c0.074,0.68,0.658,0.983,1.803,1.054
	c0.016,0,0.025,0,0.037,0c0.326,0,0.613-0.258,0.639-0.589C166.078,68.875,165.824,68.574,165.465,68.542"/>
<path id="path304" fill="#231F20" d="M162.398,64.085c-0.045,0.354,0.188,0.671,0.539,0.729c0.021,0.006,0.055,0.006,0.076,0.006
	c0.322,0,0.605-0.234,0.652-0.553l0.035-0.292c0.484,0.114,1.004,0.194,1.537,0.205c0.352,0.009,0.641-0.264,0.643-0.623
	c0.014-0.354-0.266-0.632-0.613-0.65c-1.729-0.016-3.535-1.103-3.545-1.079c-0.313-0.192-0.695-0.091-0.885,0.21
	c-0.178,0.308-0.076,0.701,0.223,0.888c0.027,0.003,0.572,0.337,1.41,0.657L162.398,64.085"/>
<path id="path306" fill="#231F20" d="M162.521,70.986v-0.007c-0.004,0-0.008-0.002-0.008-0.002L162.521,70.986"/>
<path id="path308" fill="#231F20" d="M164.982,70.631c-0.953-0.044-1.617-0.65-1.641-0.631c-0.273-0.225-0.67-0.189-0.902,0.085
	c-0.227,0.26-0.195,0.663,0.082,0.894c0.074,0.053,0.973,0.838,2.391,0.932c0.008,0,0.012,0,0.018,0c0.338,0,0.637-0.263,0.65-0.604
	C165.6,70.953,165.34,70.649,164.982,70.631"/>
<path id="path310" fill="#231F20" d="M220.133,100.392c0.164,0,0.324-0.063,0.451-0.185l5.104-5.104c0.25-0.247,0.25-0.65,0-0.901
	c-0.242-0.25-0.65-0.25-0.896,0l-5.113,5.099c-0.244,0.256-0.244,0.657,0,0.906C219.805,100.33,219.965,100.392,220.133,100.392"/>
</svg>
